
<svg width="333" height="253" viewBox="0 0 333 253" fill="none" xmlns="http://www.w3.org/2000/svg">
<path d="M22.3757 51.175C22.1094 51.2836 21.4043 51.7043 19.853 52.7899L22.3757 51.175Z" fill="white"/>
<path d="M17.0485 53.6174C17.0485 53.6174 16.8918 53.7124 16.8291 53.7396C16.8761 53.7396 16.9388 53.6989 17.0485 53.6174Z" fill="white"/>
<path d="M114.619 32.4756C115.748 32.0821 116.719 31.7157 117.22 31.4443C115.575 31.9736 114.839 32.2992 114.619 32.4756Z" fill="white"/>
<path d="M17.5496 157.874C17.4399 157.82 17.3615 157.779 17.2832 157.779C17.3615 157.996 17.4399 158.078 17.5496 157.874Z" fill="white"/>
<path d="M50.0471 35.0137C49.624 35.2172 49.201 35.4072 48.7936 35.5972C48.6526 35.8821 49.8121 35.2715 50.0471 35.0137Z" fill="white"/>
<path d="M163.601 22.8552C163.397 22.9638 163.319 23.0452 163.256 23.1131C163.397 23.0316 163.538 22.9502 163.601 22.8552Z" fill="white"/>
<path d="M157.694 11.5783C157.24 11.5647 156.785 11.6054 156.409 11.6733C156.817 11.6326 157.256 11.5919 157.694 11.5783Z" fill="white"/>
<path d="M8.47656 193.292C8.83695 193.848 9.08766 194.133 9.26002 194.255C8.89963 193.618 8.58625 193.17 8.47656 193.292Z" fill="white"/>
<path d="M32.7639 44.6477C32.6385 44.7834 32.5445 44.8784 32.5132 44.9598C32.6229 44.8377 32.7012 44.7427 32.7639 44.6477Z" fill="white"/>
<path d="M102.131 250.136C102.225 250.163 102.335 250.204 102.46 250.245C102.351 250.204 102.241 250.177 102.131 250.136Z" fill="white"/>
<path d="M56.8629 34.3892C56.7689 34.457 56.6749 34.5113 56.5652 34.5791C56.6592 34.5113 56.7689 34.4434 56.8629 34.3892Z" fill="white"/>
<path d="M104.967 235.141C105.468 235.209 105.985 235.277 106.455 235.344C105.907 235.263 105.406 235.195 104.967 235.141Z" fill="white"/>
<path d="M148.685 1.76709C148.434 1.79423 148.199 1.82137 148.011 1.84851C148.214 1.82137 148.45 1.79423 148.685 1.76709Z" fill="white"/>
<path d="M50.0467 35.0128C50.2974 34.9043 50.5324 34.7821 50.7674 34.6736L49.7803 34.9586C50.1093 34.8636 50.1407 34.9043 50.031 35.0128H50.0467Z" fill="white"/>
<path d="M157.961 251.656C157.444 251.751 157.005 251.846 156.786 251.982C157.193 251.927 157.961 251.765 157.961 251.656Z" fill="white"/>
<path d="M267.237 222.467C267.08 222.467 267.017 222.426 266.908 222.385C266.861 222.48 266.923 222.521 267.237 222.467Z" fill="white"/>
<path d="M41.8676 32.0417C41.2409 32.3674 40.9902 32.5981 40.238 33.1002L41.8676 32.0417Z" fill="white"/>
<path d="M333 42.531C332.029 42.0425 331.073 41.5675 330.117 41.0519C329.443 40.9026 328.691 40.7533 327.814 40.6041C325.651 40.889 323.144 40.2784 320.339 39.5863C318.945 39.2335 317.456 38.8671 315.905 38.5957C314.354 38.3379 312.724 38.1886 311.048 38.2429C314.683 37.863 303.37 36.6824 309.246 36.5331C306.707 35.4475 295.238 35.3661 290.27 33.8463C291.132 33.7649 290.975 33.5342 292.198 33.602C284.99 33.0999 287.434 32.3129 282.154 31.5666L282.185 32.4893C280.085 32.4893 279.615 31.7565 277.782 31.6208C279.177 31.9601 282.107 32.8421 280.446 32.9642C277.986 32.7878 275.902 32.7607 273.285 32.34C273.316 32.0008 275.181 32.1229 276.435 32.2179C276.435 32.2179 270.794 31.2409 270.496 30.7524C272.58 30.7795 275.197 31.2002 277.077 30.983C269.712 29.5446 276.544 30.6031 273.097 29.3275C273.489 29.9246 271.843 29.8025 269.618 29.4225C267.425 29.0154 264.636 28.3912 262.63 28.1334C262.332 27.6449 265.435 28.5269 266.485 28.4048C264.714 27.5906 263.147 27.0749 261.612 26.7085C260.859 26.5321 260.045 26.3829 259.23 26.2472C258.415 26.1115 257.6 26.0165 256.754 25.9079C256.237 25.8537 255.736 25.7994 255.203 25.7587C251.286 22.9226 247.102 20.8057 243.294 19.0416C242.182 18.4988 241.069 18.0103 240.02 17.5082C238.97 17.0197 237.982 16.504 237.027 16.0291C235.131 15.0792 233.532 14.0343 232.232 12.9216C226.748 11.3068 220.12 9.82767 211.611 7.61579C211.502 7.94147 210.06 7.64293 208.713 7.37153C207.365 7.12728 206.112 6.96444 206.394 7.46652C210.311 8.85065 214.15 9.58342 217.785 10.3569C219.603 10.764 221.342 11.1982 223.018 11.7139C224.664 12.2702 226.231 12.9352 227.641 13.7765C231.245 14.8078 230.352 13.8308 232.091 14.0886C233.642 14.6585 235.115 15.3099 236.228 15.8391C237.34 16.3683 238.077 16.8433 238.171 17.1282C234.551 15.812 233.861 16.0155 232.984 16.0562C232.091 16.0834 230.994 16.0019 226.497 14.3329C226.951 14.7942 228.988 15.7034 231.339 16.6397C233.642 17.6439 236.243 18.6752 237.763 19.4758C236.666 19.3401 237.418 20.1 239.283 21.2399C236.792 20.7107 231.605 19.0009 228.738 18.4717C229.819 18.5395 228.205 17.7118 229.051 17.8339C229.051 17.8339 228.44 17.671 227.547 17.4268C227.092 17.3047 226.575 17.169 225.996 17.0061C225.432 16.8704 224.82 16.7212 224.209 16.5719C222.987 16.2869 221.796 15.9748 220.872 15.7713C219.947 15.5813 219.336 15.4456 219.336 15.4456C216.626 14.1157 216.03 13.383 217.738 13.5322C215.153 12.6231 211.517 11.7682 208.556 11.0897C205.594 10.4112 203.307 9.89552 203.448 9.3663C199.922 8.67424 200.439 8.97277 201.897 9.43415C203.354 9.92266 205.72 10.6961 205.97 10.8997L205.359 10.8047C205.359 10.8047 207.208 11.1982 209.026 11.6732C209.935 11.9039 210.844 12.1345 211.533 12.2974C211.878 12.3788 212.16 12.4602 212.348 12.5145C212.552 12.5688 212.661 12.5959 212.661 12.5959C212.755 12.9487 212.301 12.9352 211.533 12.7859C210.765 12.6366 209.684 12.311 208.54 11.9717C207.412 11.6189 206.19 11.2932 205.171 11.1032C204.153 10.9133 203.338 10.8318 202.962 11.049C202.085 11.9581 199.577 11.2525 196.585 10.2483C195.096 9.7734 193.482 9.20346 191.9 8.75566C190.317 8.32142 188.781 7.95504 187.45 7.84648C187.45 7.84648 189.032 7.69721 190.63 7.54794C191.43 7.46652 192.229 7.39867 192.84 7.34439C193.435 7.30368 193.843 7.27655 193.843 7.27655C193.843 7.27655 193.514 7.23584 193.012 7.18156C192.511 7.12728 191.837 7.073 191.163 7.00515C189.816 6.88302 188.484 6.76089 188.484 6.76089C191.649 6.65233 191.853 5.55318 196.71 5.79743C194.877 5.44462 192.855 5.02395 190.756 4.68471C188.672 4.29118 186.509 3.96551 184.425 3.6534C182.341 3.32772 180.336 3.12418 178.55 2.92063C176.763 2.74422 175.181 2.6628 173.974 2.63566C172.157 1.9436 171.342 1.42795 172.235 0.939432C164.588 1.46866 160.42 -0.0783053 153.808 0.00311372C146.867 0.708745 160.812 0.695175 155.751 1.55007C154.701 1.37367 153.228 1.37367 151.787 1.45509C150.659 1.53651 149.546 1.6722 148.669 1.76719C149.154 1.71291 149.734 1.68577 150.423 1.6722C150.956 1.6722 151.536 1.64506 152.163 1.65863C152.79 1.65863 153.448 1.68577 154.121 1.69934C156.864 1.75362 159.95 1.99788 162.473 2.16072C158.697 2.10644 159.12 2.87992 158.07 3.19202C158.07 3.19202 159.637 3.2463 161.204 3.30058C161.987 3.32772 162.771 3.35486 163.351 3.39557C163.93 3.42271 164.322 3.44985 164.322 3.44985C163.883 4.34546 156.644 3.382 153.761 3.96551C155.579 3.08347 154.56 3.0699 156.409 2.18786C155.046 2.29642 153.526 2.37783 151.928 2.45925C150.329 2.55424 148.653 2.63566 147.008 2.68994C145.362 2.77136 143.748 2.83921 142.244 2.86635C140.74 2.89349 139.361 2.9342 138.202 2.89349C135.444 2.78493 140.442 2.26928 141.884 1.91646C140.568 1.44152 136.494 2.70351 135.35 2.12001C136.118 1.48223 138.687 1.76719 140.568 1.44152C140.568 1.44152 139.565 1.50937 138.076 1.61792C136.572 1.69934 134.582 1.88932 132.576 2.0793C130.571 2.22857 128.612 2.54067 127.124 2.71708C125.635 2.90706 124.648 3.02919 124.648 3.02919C124.585 2.68994 128.518 2.01145 131.041 1.79433C128.596 1.93003 126.512 2.18786 124.35 2.63566C122.203 3.11061 119.963 3.70768 117.33 4.84754C114.62 5.18679 111.689 5.52604 109.637 5.6753C107.6 5.85171 106.456 5.90599 107.286 5.43105C104.905 6.2181 106.628 6.13668 106.754 6.46236C103.165 7.2087 101.254 7.9279 99.7339 8.59282C98.214 9.24417 97.1015 9.93623 95.0018 10.5333L98.3864 10.2483C91.4136 11.5103 97.1955 11.7003 91.0689 12.8945C91.7897 11.9988 91.1159 11.3746 89.831 10.9811C89.0789 11.8631 85.1303 12.5688 82.5606 13.383C84.4095 13.4915 77.3428 15.7306 81.7301 15.0114C80.3042 15.5949 79.082 16.1241 77.9538 16.5312C76.8257 16.9518 75.8072 17.2911 74.8357 17.6168C73.8642 17.9424 72.9397 18.2681 72.0309 18.6481C71.1064 19.028 70.229 19.5301 69.2888 20.1407C72.0153 19.2587 64.7448 22.7597 67.2519 22.2712C65.9043 22.8411 64.6194 23.3025 63.4912 23.696C62.3787 24.1031 61.4073 24.4152 60.6238 24.6052C59.0726 24.9852 58.3048 24.8902 58.8375 24.2524C60.7335 23.4654 63.8516 22.3933 63.3659 21.9998C63.3659 21.9998 63.2092 22.0677 62.9429 22.1762C62.6765 22.2984 62.3004 22.4748 61.8303 22.6919C60.9215 23.1125 59.6993 23.6825 58.4771 24.2388C57.255 24.7952 56.0484 25.3651 55.1239 25.7994C54.2308 26.2472 53.6197 26.5457 53.6197 26.5457C51.05 27.4006 47.8691 28.7576 47.0387 28.2826C45.7695 29.4361 43.4504 30.481 41.2098 31.4851C40.6457 31.743 40.0973 31.9872 39.5645 32.2315C39.0474 32.4893 38.5617 32.7607 38.1073 33.0185C37.1985 33.5342 36.4777 34.0634 36.0703 34.6062C37.4492 33.4528 38.8908 32.7064 40.1599 32.2179C41.4448 31.7294 42.526 31.458 43.1841 31.1866L41.8052 32.0686C42.0246 31.9601 42.2596 31.8515 42.5886 31.7022C42.5886 31.7022 41.7739 32.5164 40.9434 33.3306C40.536 33.7242 40.1443 34.1584 39.8309 34.4705C39.5332 34.7826 39.3295 34.9997 39.3295 34.9997C41.4135 34.1584 41.4605 33.9006 41.6642 33.4528C41.8679 33.0185 42.2439 32.4215 45.0174 30.983C47.7908 30.2638 45.3464 32.0958 42.9177 33.8327C41.6955 34.7012 40.5046 35.5832 39.9406 36.126C39.3921 36.6552 39.4548 36.8316 40.8024 36.3296C45.0644 34.4976 43.6385 33.887 46.7409 31.743L45.8478 32.1772C45.8478 32.1772 46.3022 31.9058 46.9917 31.4851C47.3364 31.268 47.7281 31.0373 48.1668 30.7795C48.6056 30.5352 49.0757 30.2638 49.5301 29.9925C51.3947 28.934 53.275 27.8756 53.275 27.8756C53.8704 28.0655 51.7238 29.5175 51.7238 29.5175C56.3932 27.1971 59.2919 26.1658 62.222 25.053C62.9585 24.7816 63.6949 24.4831 64.4784 24.2117C65.2619 23.9267 66.0923 23.6418 67.0012 23.3297C67.8943 23.004 68.8658 22.6376 69.947 22.2441C70.4797 22.0405 71.0438 21.8234 71.6392 21.6063C72.2346 21.3756 72.8614 21.1449 73.5351 20.9142C73.1121 20.9821 72.2189 20.9142 72.0309 20.5886C71.8272 20.2493 72.313 19.6522 74.6477 18.6888C77.9382 17.1418 78.6746 17.671 81.5734 16.7483C79.9125 17.4675 78.7217 18.7295 76.2146 19.1094L76.81 19.8829C74.9454 20.86 73.8485 21.552 73.0651 22.0948C72.2973 22.6783 71.8585 23.099 71.3258 23.5332C70.7774 23.981 70.1506 24.4288 69.0068 25.053C68.4427 25.3651 67.7376 25.718 66.8445 26.1522C66.4057 26.3557 65.92 26.5864 65.3872 26.8442C64.8545 27.1021 64.2904 27.387 63.6479 27.6991C63.5853 28.1062 61.7363 29.219 59.1979 30.5217C57.913 31.1459 56.5185 31.9329 55.0613 32.6521C53.6041 33.3849 52.0998 34.077 50.7053 34.7148L53.7137 33.9413C51.2067 35.8003 50.8306 35.7461 50.2195 35.7732C49.6084 35.7868 48.7936 35.8953 45.5031 38.1615C43.6385 38.3922 41.1941 39.03 39.5958 39.1657C37.9976 39.3149 37.2612 39.0028 38.9378 37.483C37.6372 38.1208 36.5717 38.6907 35.6315 39.2199C34.7071 39.7627 33.9393 40.292 33.1715 40.8076C31.6516 41.8525 30.1944 42.8431 28.0007 44.1865C24.6475 45.0143 28.6588 42.4903 27.4993 41.9882C24.3341 44.0372 20.5579 46.8462 23.3157 45.842L16.9853 49.2888C16.6876 49.2209 18.8499 47.8639 19.7117 47.3618C17.2047 48.651 13.0367 51.8942 11.9555 53.034C12.4099 52.6812 13.8202 51.5956 14.5879 51.3107C12.2689 53.1019 8.10091 56.3451 7.95989 56.7657C11.2817 54.0382 12.3629 54.7167 15.7631 51.7856C15.6221 52.2063 15.3244 53.0476 13.2247 54.2146C16.7973 52.6812 19.8841 50.5915 21.6704 50.3201C18.6462 51.5685 17.4397 53.2512 16.9383 53.6854C19.461 52.3148 24.1147 49.2073 25.5406 47.9861C26.0891 48.3389 28.4081 46.8733 30.2884 45.6927C32.012 44.6207 33.3752 43.793 32.6544 44.7293C33.5476 43.9015 36.462 42.1917 38.2483 41.4861C38.358 41.9475 33.8139 44.9464 32.153 46.5748C23.1433 52.6676 31.7769 45.8013 29.3639 46.8326C29.3639 46.8326 27.5776 47.9318 25.807 49.0309C24.0364 50.1437 22.2658 51.27 22.2658 51.27C23.0963 50.9578 19.9468 53.6718 24.5378 50.7407C23.6917 51.6906 22.2345 52.9526 20.4795 54.2282C18.7246 55.5173 16.7033 56.7793 14.682 57.7292C14.0552 58.5298 16.7033 56.7793 17.5337 56.2908C16.9226 57.0778 13.2404 60.8503 19.179 57.3221C17.4867 58.3263 21.639 55.1102 18.3955 56.6979C20.6362 55.0966 27.2486 51.5821 25.1646 53.6311C25.8384 53.1562 26.6531 52.5727 27.5463 51.9349C28.4394 51.3107 29.3796 50.6457 30.3197 49.9808C31.2599 49.3295 32.1844 48.6781 33.0148 48.0946C33.8453 47.5382 34.5974 47.0497 35.1615 46.6698C36.1643 46.7105 33.2812 47.9996 32.2784 48.9224C32.2784 48.9224 32.7798 48.5967 33.5319 48.1217C34.284 47.6468 35.2868 47.0226 36.2897 46.3984C37.2925 45.7742 38.2953 45.1364 39.0475 44.675C39.8152 44.2136 40.3167 43.9151 40.3167 43.9151C40.3167 43.9151 39.6272 44.1322 38.9534 44.3358C38.2797 44.5665 37.5902 44.7836 37.5902 44.7836C39.1571 43.983 40.5673 43.2366 41.8209 42.436C43.0744 41.6489 44.2026 40.8619 45.2994 40.0748C47.4931 38.555 49.4831 36.9945 51.8805 35.5289C51.7864 36.0717 50.7209 36.9266 49.295 37.8765C47.8691 38.84 46.0829 39.8984 44.61 40.984C48.3706 40.2241 46.3336 39.4235 51.6141 36.8452C52.3975 36.6145 52.7109 36.7231 52.5229 37.1302L56.2678 34.4162C57.302 34.0091 57.1296 34.2534 56.7535 34.5248C59.762 32.53 59.5897 32.2993 59.715 31.9736C59.856 31.648 60.3418 31.2273 65.1835 28.839C59.0099 31.1323 60.4201 31.5801 55.4843 33.9141C53.8861 34.3212 55.1239 33.3985 56.9259 32.2179C57.3803 31.9329 57.866 31.6208 58.3518 31.3223C58.8375 31.0373 59.3233 30.7524 59.7933 30.481C60.7022 29.9517 61.4699 29.4904 61.7833 29.2461C66.7504 27.2242 68.004 28.2555 73.8642 25.053C69.6962 27.2378 74.0835 25.8808 67.8942 28.4319C64.6664 30.2503 69.9313 28.0384 70.9027 28.2148C72.454 27.4006 69.3515 27.8077 73.9739 26.0708L73.8485 26.2607C73.8485 26.2607 74.2873 26.0165 74.9454 25.6501C75.6191 25.3109 76.5123 24.8495 77.3898 24.3881C79.1917 23.4654 80.978 22.5562 80.978 22.5562C81.9025 22.2984 82.7956 21.9455 83.7514 21.6606C84.7073 21.362 85.6474 21.0364 86.6032 20.6835C88.5148 20.0051 90.4265 19.2451 92.2911 18.5666C94.1714 17.9424 95.989 17.3318 97.6813 16.884C98.5274 16.6533 99.3265 16.4498 100.094 16.3005C100.862 16.1376 101.583 16.0427 102.257 16.0155C102.257 16.0155 101.881 15.8663 101.505 15.7034C101.144 15.5406 100.768 15.4049 100.768 15.4049C103.087 14.7942 105.923 14.1157 108.571 13.4373C109.229 13.2744 109.887 13.1116 110.514 12.9487C111.141 12.7859 111.768 12.6773 112.348 12.5416C113.523 12.2838 114.557 12.0531 115.387 11.8496C115.058 12.1753 114.118 12.5145 112.833 12.8673C112.191 13.0437 111.47 13.2066 110.702 13.4237C109.935 13.6408 109.135 13.8851 108.321 14.1157C109.386 13.8986 110.405 13.6408 111.439 13.4237C112.457 13.2337 113.476 13.0166 114.463 12.813C116.437 12.3924 118.333 11.9581 120.135 11.4968C121.028 11.2525 121.921 11.0625 122.783 10.8726C123.645 10.6826 124.491 10.4926 125.306 10.289C126.936 9.89552 128.471 9.502 129.881 9.10847C125.541 9.05419 124.93 9.20346 120.793 9.33916C123.473 8.29428 125.196 8.24 127.124 8.25357C129.051 8.29428 131.166 8.26714 134.77 7.60222C135.099 8.48426 132.67 8.60639 134.598 9.28488C135.334 9.05419 136.196 8.83708 137.12 8.66067C138.061 8.49783 139.079 8.34856 140.113 8.21286C142.166 7.90076 144.297 7.71078 145.989 7.31725C146.945 7.69721 146.616 8.13144 145.127 8.52497C144.391 8.72852 143.357 8.9185 142.041 9.0949C140.74 9.31202 139.157 9.502 137.308 9.67841C135.883 9.6377 134.425 9.73269 132.984 9.89552C132.263 9.97694 131.542 10.0855 130.837 10.2212C130.132 10.3569 129.427 10.4926 128.722 10.6283C125.933 11.1847 123.269 11.7003 120.903 11.7003C120.903 11.7003 121.091 11.7003 121.357 11.7003C121.624 11.7139 121.984 11.7275 122.36 11.7546C123.081 11.7817 123.817 11.8224 123.817 11.8224C122.438 12.0803 121.185 12.2974 120.041 12.5688C118.882 12.813 117.816 13.0437 116.766 13.2608C115.716 13.478 114.698 13.7086 113.648 13.9529C112.598 14.2107 111.517 14.4414 110.405 14.8485L110.561 14.6721L108.509 16.0969L111.016 15.5134C109.417 16.4226 104.513 18.431 102.993 18.8109C110.624 16.9111 110.734 15.2827 114.259 13.8308C116.03 13.5051 117.565 13.3287 118.913 13.2201C120.276 13.1251 121.467 13.0437 122.595 13.0573C124.836 13.0573 126.747 12.9894 129.035 12.2567C129.505 12.6231 133.517 12.5009 130.43 13.3558C126.575 14.1565 123.708 14.0072 123.441 14.6585C127.547 14.0479 126.058 14.6314 132.279 13.6272C133.329 12.6909 137.92 11.3882 142.417 10.4112C147.164 9.62413 153.401 9.46129 157.208 9.67841C152.398 9.78697 147.666 10.7911 148.904 11.3204C151.646 10.3298 158.242 11.7682 156.816 10.6419C158.211 10.669 159.841 10.6961 161.502 10.7233C163.163 10.7776 164.87 10.8861 166.422 10.9947C169.508 11.2661 171.969 11.6596 172.219 12.1753C167.001 12.1888 161.972 11.4561 157.537 11.6596C158.759 11.6867 159.95 11.9581 159.23 12.1753C159.23 12.1753 158.822 12.1753 158.211 12.1481C157.6 12.121 156.785 12.121 155.97 12.121C154.341 12.121 152.711 12.121 152.711 12.121C155.187 12.3245 156.174 12.5009 157.318 12.6095C158.477 12.7588 159.794 12.7859 162.927 12.7995C162.536 12.7045 161.752 12.5145 162.348 12.4874C163.915 12.5145 165.889 12.6095 167.456 12.6638L167.597 13.5865C168.772 13.5458 170.198 13.6137 171.828 13.7494C173.441 13.9258 175.259 14.1293 177.186 14.3871C179.114 14.645 181.151 14.9299 183.235 15.2149C184.284 15.3642 185.35 15.4727 186.4 15.5949C187.465 15.7306 188.531 15.8391 189.596 15.9205L188.797 15.9884C190.458 16.2869 191.759 16.4498 192.887 16.5176C194.015 16.5855 195.002 16.5176 195.989 16.504C197.964 16.4633 200.079 16.3412 203.699 17.1147C201.489 17.0333 202.335 17.6303 202.57 18.1188C204.419 18.2953 205.751 18.7295 207.052 19.2451C207.694 19.503 208.337 19.7744 209.042 20.0593C209.731 20.3579 210.468 20.67 211.314 20.9821C207.443 19.2994 214.416 20.8735 211.564 19.7337C211.596 19.503 212.081 19.4623 212.834 19.5572C213.21 19.598 213.664 19.6794 214.165 19.7744C214.651 19.8829 215.2 20.0322 215.764 20.1815C216.892 20.5071 218.145 20.86 219.321 21.2806C219.947 21.4977 220.543 21.7148 221.107 21.9184C220.151 21.9184 219.336 21.9455 218.882 22.0948C218.584 22.0134 218.286 21.932 217.989 21.8505C215.623 21.267 213.664 20.7921 215.607 21.9862C214.275 21.7963 212.99 21.647 212.99 21.647C210.562 21.9727 210.891 22.4748 210.624 22.8954C210.374 23.3297 209.543 23.6553 204.827 23.8182C200.518 23.696 200.706 23.2618 201.332 22.719C201.959 22.1898 203.04 21.6199 200.502 21.4163L198.418 22.1355C198.418 22.1355 197.352 22.0541 196.287 21.9998L194.156 21.8913L194.798 21.7963C192.276 22.1219 187.653 22.2576 187.606 21.9184C187.998 21.6199 190.74 21.4299 191.116 21.1449C190.082 21.362 188.515 21.4435 186.666 21.4706C184.817 21.5113 182.718 21.5384 180.602 21.5792C178.487 21.647 176.372 21.7827 174.538 21.9998C172.689 22.2441 171.122 22.6376 170.088 23.194C167.566 23.1668 162.473 23.8589 163.021 23.2075C161.972 23.7503 159.167 24.076 156.237 24.4288C154.764 24.6188 153.275 24.7952 151.928 24.9988C150.596 25.2023 149.421 25.4601 148.622 25.718C148.998 25.3787 145.754 25.5008 143.31 26.2065C146.726 25.8401 144.704 26.5457 142.542 27.4006C141.006 27.4006 138.202 27.9705 135.601 28.4455C132.999 28.9476 130.602 29.3954 129.834 29.0833C125.463 30.6845 127.327 30.9152 126.559 31.8108C125.024 31.8787 121.984 32.5979 119.461 33.0864C116.954 33.6292 114.98 33.9548 115.591 33.2085C118.098 32.5843 123.692 31.3087 122.407 30.9152C117.565 31.8108 120.448 31.7158 116.641 32.9371C116.86 32.6657 113.758 33.0864 114.385 32.5707C112.144 33.3713 108.947 34.3348 105.641 35.2983C110.89 34.0363 102.727 37.0895 105.939 36.4517C105.939 36.4517 107.067 35.8546 108.195 35.2711C108.759 34.9726 109.323 34.674 109.762 34.4841C110.185 34.2669 110.467 34.1312 110.467 34.1312C116.359 32.2315 111.94 34.2941 114.275 33.8463C111.721 34.7148 109.935 35.3525 108.603 35.9767C107.255 36.5874 106.315 37.0759 105.406 37.5916C104.497 38.0936 103.636 38.6364 102.398 39.2742C101.787 39.5999 101.081 39.9256 100.251 40.3462C99.4205 40.7533 98.4647 41.2283 97.3052 41.7439C96.3807 42.0018 95.1115 42.4224 93.9364 42.8159C92.7612 43.2095 91.6957 43.5759 91.2256 43.793C94.2654 42.3817 93.1999 41.7711 91.2883 42.3817C88.9849 43.9151 86.6502 44.8107 84.3939 45.6385C83.25 46.032 82.1375 46.412 81.025 46.7919C80.3199 47.0497 79.6461 47.3347 78.9723 47.6061C81.0877 46.8598 79.8342 48.081 78.847 48.8274C76.81 50.0215 75.6192 50.7679 74.8357 51.1614C74.0679 51.5549 73.7702 51.6228 73.5821 51.5956C73.2218 51.5278 73.3471 51.0257 71.4042 51.8399C65.0268 55.463 59.7463 58.3941 54.9359 61.3931C50.1412 64.392 45.7695 67.4181 41.5075 71.3804C41.5075 71.3804 42.761 70.6748 44.0302 69.9692C44.657 69.6164 45.2838 69.2771 45.7538 69.0193C46.2239 68.7479 46.5373 68.5851 46.5373 68.5851L47.3521 66.8346C49.342 65.7897 49.5301 66.2782 49.0443 67.2552C48.5742 68.2458 47.3991 69.6842 46.6783 70.6612C46.3179 70.7427 44.798 71.9232 43.5758 72.8189C42.385 73.728 41.5232 74.3794 42.4006 73.2938C42.4006 73.2938 41.1628 74.4744 39.9406 75.6549C39.3138 76.2384 38.7341 76.8627 38.2953 77.324C37.8566 77.7854 37.5589 78.084 37.5589 78.084C38.0916 77.8668 39.1414 76.9848 39.7995 76.4691C40.489 75.9671 40.7554 75.8042 39.7212 76.9984C38.7811 77.6633 36.9634 79.1424 35.7726 80.0651C34.5974 81.0015 33.9863 81.3543 35.3338 79.6309C34.0333 80.8929 32.5918 82.372 31.683 83.539C30.7741 84.7196 30.3041 85.5338 30.7898 85.3981C26.8882 89.659 30.1944 84.2854 31.7143 82.1685C28.4708 85.4795 28.2201 84.611 28.9722 83.4169C28.9722 83.4169 28.6901 83.7154 28.2827 84.1632C27.891 84.6246 27.3113 85.1945 26.7942 85.8188C25.76 87.0536 24.7102 88.2885 24.7102 88.2885C25.4153 87.0807 25.1019 86.8772 25.807 85.6695C24.2558 87.1893 23.159 88.6549 22.1875 90.0933C21.2003 91.5181 20.1818 92.8344 18.7873 94.1235L18.5365 95.8197C17.5807 96.946 16.8286 97.9638 16.1549 98.8594C15.4811 99.755 14.8857 100.515 14.3999 101.207C13.4284 102.618 12.692 103.69 11.9869 104.749C10.6707 106.893 9.40147 108.982 7.09811 113.881L8.44568 112.443C7.80324 114.356 7.39581 115.672 6.94141 116.69C6.50267 117.708 6.01692 118.414 5.56252 119.241C5.10811 120.055 4.59105 120.965 4.01129 122.308C3.87027 122.647 3.69789 123.014 3.55687 123.407C3.41585 123.814 3.27484 124.249 3.13382 124.723C2.83611 125.673 2.53842 126.8 2.22504 128.116C1.97433 129.622 1.73927 130.979 1.56691 132.173C1.36321 133.367 1.33185 134.399 1.30052 135.227C1.26918 136.868 1.44154 137.669 1.98996 137.33C1.91161 138.185 1.88028 138.877 1.80194 139.46C1.72359 140.044 1.61391 140.505 1.50422 140.899C1.25352 141.699 0.95582 142.269 0.689445 143.029C0.846136 144.386 1.11252 146.517 1.23787 148.81C1.34756 149.963 1.42591 151.144 1.44158 152.311C1.44158 152.894 1.44155 153.478 1.41021 154.034C1.41021 154.591 1.37889 155.147 1.33188 155.676C1.2222 154.971 1.09684 154.292 1.03417 153.627C0.971491 152.976 0.908822 152.338 0.846146 151.7C0.799138 151.063 0.736452 150.438 0.689445 149.801C0.642438 149.163 0.595449 148.525 0.611118 147.846C0.0470303 148.213 0.0156691 150.533 0 153.302C0 154.686 0.141014 156.178 0.188022 157.59C0.21936 158.309 0.235058 159.001 0.266396 159.652C0.313403 160.304 0.329038 160.914 0.329038 161.471C0.517067 162.217 0.799142 163.411 1.14386 164.836C1.53559 166.288 2.00564 168.011 2.58539 169.748C3.71357 173.236 5.23348 176.886 6.45567 179.437C6.47134 178.148 6.86307 177.673 7.48983 178.094C8.10093 178.514 9.02541 179.79 10.1849 182.002C9.77753 181.717 10.1379 183.318 10.8117 185.394C11.1564 186.425 11.5325 187.579 11.9399 188.678C12.3316 189.777 12.7077 190.822 12.9897 191.623C12.3629 190.944 12.833 192.803 13.0994 194.038C13.2404 194.649 13.3188 195.097 13.1307 194.988C12.9427 194.88 12.4413 194.215 11.6108 192.559C11.2818 191.541 11.2034 190.741 11.0781 189.872C10.9371 189.004 10.6393 188.095 9.98122 186.792C10.0439 188.57 11.1407 193.088 13.115 197.688C13.0054 197.634 12.8016 197.458 12.5666 197.186C12.3316 196.915 12.0652 196.549 11.7518 196.128C11.1407 195.259 10.4513 194.133 9.91853 192.966C10.7647 194.147 10.5923 193.346 10.7334 193.075C9.57384 191.094 9.04109 190.211 8.77471 190.022C8.49267 189.832 8.52398 190.334 8.64933 191.053C8.90004 192.491 9.65216 194.825 8.99406 194.337C9.30744 194.88 9.69919 195.585 10.0909 196.291C10.4983 196.996 10.8587 197.716 11.2348 198.299C11.8145 199.222 12.2219 199.765 12.1592 199.317C12.8487 201.678 14.964 204.65 17.5024 207.513L18.5209 208.666C18.897 209.046 19.2573 209.426 19.6177 209.793C19.9781 210.173 20.3385 210.539 20.6833 210.905C21.028 211.258 21.3727 211.557 21.7017 211.883C23.0179 213.145 24.1618 214.366 24.9296 215.506C25.2116 215.574 23.3 213.063 26.2928 215.506C28.5021 217.31 29.4109 218.247 29.9593 218.952C30.2414 219.305 30.4294 219.604 30.6331 219.916C30.8525 220.228 31.0875 220.567 31.5106 220.961C32.3411 221.341 34.5347 222.766 36.4307 224.055C36.9008 224.38 37.3708 224.679 37.7939 224.937C38.217 225.208 38.593 225.439 38.9064 225.629C39.5175 226.022 39.8309 226.253 39.6115 226.172C41.3195 227.094 40.6927 226.28 40.254 225.547C39.8152 224.815 39.5645 224.177 41.9462 225.398C42.8393 225.71 43.7168 226.144 44.61 226.646C45.5188 227.108 46.4433 227.651 47.3678 228.207C48.2922 228.777 49.2167 229.36 50.1412 229.93C51.0656 230.5 52.0685 230.962 53.0243 231.41C55.0926 232.821 53.9018 232.346 51.9588 231.41C51.473 231.165 50.9246 230.907 50.3919 230.65C49.8591 230.365 49.3107 230.066 48.8093 229.781C47.7908 229.225 46.882 228.75 46.3649 228.546C46.3649 228.546 47.1484 228.981 48.3392 229.618C48.9347 229.93 49.6241 230.31 50.3606 230.704C51.1127 231.07 51.9275 231.464 52.7422 231.844C54.3562 232.617 55.9701 233.404 57.1923 233.961C58.4301 234.49 59.2606 234.829 59.2606 234.829C61.0625 235.915 60.5141 235.901 59.0412 235.385C58.3048 235.128 57.3333 234.761 56.3148 234.3C55.312 233.825 54.2622 233.282 53.3377 232.78C53.9331 233.16 54.5598 233.554 55.2179 233.92C55.876 234.3 56.5341 234.68 57.2236 234.992C58.6025 235.643 60.0127 236.24 61.3133 236.756C61.9714 237.014 62.5981 237.245 63.1935 237.448C63.7889 237.652 64.353 237.787 64.8701 237.923C65.8886 238.181 66.6877 238.317 67.1735 238.317C67.9883 238.683 68.7247 239.009 69.3985 239.28C70.0723 239.579 70.7147 239.823 71.3572 240.053C72.6264 240.528 73.8642 240.99 75.3998 241.695C73.7232 241.315 72.783 241.438 71.6235 241.451C71.0438 241.451 70.417 241.451 69.6022 241.302C68.8031 241.153 67.8159 240.895 66.5624 240.433C58.4301 237.068 69.9782 240.759 63.1465 237.801L62.175 238.208C60.8275 237.353 59.5113 236.797 58.1167 236.268C57.4116 236.01 56.7222 235.752 55.9858 235.467C55.265 235.168 54.5285 234.843 53.7607 234.463C52.1625 233.431 54.2935 234.422 55.4843 234.911C49.9061 232.183 45.9105 229.455 41.4135 227.637C41.8209 227.949 42.2439 228.275 42.6827 228.601C43.1214 228.926 43.6072 229.211 44.0929 229.523C45.0644 230.134 46.0829 230.758 47.117 231.369C49.1697 232.644 51.4261 233.689 53.4944 234.761C55.5627 235.847 57.584 236.715 59.2292 237.516C60.8745 238.303 62.1594 239.036 62.9115 239.565C62.9115 239.565 63.9143 239.904 65.4342 240.406C66.1864 240.651 67.0638 240.949 68.0039 241.261C68.474 241.41 68.9598 241.573 69.4612 241.736C69.9626 241.885 70.464 242.021 70.9811 242.17C73.0181 242.74 75.0394 243.324 76.5593 243.758C78.0949 244.152 79.129 244.382 79.129 244.382C79.1917 244.219 77.8912 243.582 77.1704 243.093C76.81 242.835 76.6063 242.618 76.763 242.537C76.9353 242.455 77.4681 242.51 78.6433 242.727C79.3954 243.419 80.8996 244.219 82.9993 245.115C84.0491 245.576 85.2556 245.984 86.6032 246.404C87.9351 246.825 89.408 247.273 90.9592 247.72C88.9222 246.309 101.332 249.145 98.355 247.693C95.2839 247.517 94.0303 246.418 93.6543 246.255C99.7339 247.53 94.7198 245.59 98.0573 246.255C99.4205 246.608 100.455 246.798 101.222 246.974C101.99 247.137 102.492 247.273 102.805 247.368C103.448 247.558 103.369 247.625 103.291 247.693C103.197 247.761 103.103 247.843 103.714 248.033C104.027 248.141 104.497 248.263 105.249 248.44C106.002 248.63 107.02 248.82 108.399 249.05C107.788 249.077 106.942 249.105 105.923 249.105C104.92 249.077 103.714 249.05 102.413 248.982C101.097 248.915 99.6556 248.86 98.1514 248.697C96.6628 248.535 95.1115 248.318 93.5603 248.087C93.7013 248.345 95.2369 248.67 97.0388 249.05C97.4932 249.145 97.9633 249.254 98.4177 249.349C98.8878 249.444 99.3579 249.539 99.8123 249.634C100.564 249.797 101.269 249.973 101.849 250.163C99.0601 249.159 104.826 249.824 101.99 249.091C103.118 249.24 104.278 249.376 105.453 249.539C106.628 249.688 107.851 249.742 109.073 249.851C110.295 249.946 111.533 250.027 112.802 250.122C114.071 250.204 115.356 250.217 116.657 250.272C117.957 250.312 119.258 250.353 120.589 250.394H124.616C127.343 250.434 129.96 250.353 132.639 250.353C131.777 251.031 127.327 251.276 123.206 251.303C122.188 251.316 121.216 251.357 120.339 251.384C119.477 251.384 118.725 251.411 118.145 251.479C117.001 251.588 116.547 251.846 117.377 252.348C118.756 252.416 119.79 252.456 120.636 252.416C121.483 252.375 122.156 252.293 122.768 252.239C124.021 252.117 125.118 252.022 127.312 252.185C130.868 253.121 139.768 252.578 146.976 252.375L143.78 251.981C145.143 251.778 147.086 251.764 149.092 251.737C151.097 251.71 153.166 251.737 154.764 251.737L153.949 251.954C153.949 251.954 154.732 251.859 155.5 251.778C156.284 251.669 157.067 251.561 157.067 251.561C157.553 251.574 157.678 251.615 157.663 251.669C161.094 251.113 169.932 250.991 176.497 250.109C176.45 249.77 174.82 249.892 172.799 250.136C171.796 250.272 170.684 250.407 169.634 250.543C168.584 250.652 167.581 250.747 166.798 250.774C166.359 250.733 164.604 250.733 163.335 250.665C162.066 250.597 161.267 250.434 162.724 250.122C164.761 249.987 166.657 249.81 168.474 249.607C170.292 249.417 172.047 249.132 173.833 248.887C174.726 248.765 175.619 248.63 176.544 248.494C177.468 248.358 178.393 248.209 179.38 248.06C180.352 247.91 181.354 247.775 182.404 247.639C183.454 247.517 184.551 247.368 185.695 247.218C185.695 247.218 184.958 247.259 184.222 247.3C183.485 247.34 182.749 247.368 182.749 247.368C184.175 246.988 185.883 246.662 187.779 246.418C188.734 246.296 189.722 246.173 190.756 246.038C191.79 245.902 192.855 245.739 193.937 245.563C201.959 244.789 188.311 247.422 193.2 247.069C191.696 247.639 189.549 247.897 187.685 248.155C185.82 248.413 184.269 248.67 183.908 249.145C183.908 249.145 184.237 249.172 184.723 249.2C185.209 249.227 185.851 249.267 186.509 249.295C187.81 249.362 189.126 249.43 189.126 249.43C191.195 248.887 193.42 248.602 195.504 248.399C196.553 248.304 197.556 248.209 198.481 248.128C199.405 248.033 200.251 247.897 200.988 247.72C200.988 247.72 200.173 247.761 199.358 247.802C198.951 247.829 198.543 247.843 198.23 247.843C197.932 247.843 197.729 247.856 197.729 247.856C198.199 247.056 201.238 247.042 202.743 246.879L200.377 246.201C198.073 246.553 196.177 247.001 194.422 247.422C192.667 247.843 191.069 248.182 189.33 248.073C191.367 247.734 192.746 247.381 193.843 247.069C194.939 246.757 195.739 246.499 196.6 246.228C198.324 245.712 200.22 245.088 205.093 244.192C205.641 244.532 203.26 244.694 202.335 245.196C204.043 245.034 205.704 244.586 207.631 244.016C208.587 243.745 209.606 243.46 210.734 243.175C211.298 243.039 211.893 242.917 212.505 242.781C213.116 242.645 213.758 242.51 214.432 242.387C213.695 242.632 212.834 242.93 212.034 243.202C211.22 243.46 210.468 243.731 209.919 243.948C208.838 244.409 208.65 244.708 210.718 244.559C210.718 244.559 211.376 244.206 212.05 243.853C212.379 243.677 212.708 243.5 212.959 243.351C213.21 243.215 213.366 243.12 213.366 243.12C215.873 242.645 214.965 243.202 215.983 242.971C217.769 242.618 217.487 242.469 217.487 242.252C217.487 242.143 217.534 242.021 217.942 241.858C218.349 241.682 219.117 241.492 220.496 241.153C221.373 241.085 223.254 240.746 222.517 241.153C225.682 240.284 226.419 240.013 227.077 239.66C227.735 239.321 228.315 238.954 231.151 237.842C225.917 239.497 225.275 238.371 230.587 236.539C231.543 236.268 232.436 235.969 233.297 235.643C234.159 235.318 234.99 235.019 235.789 234.721C236.588 234.408 237.356 234.123 238.092 233.839C238.844 233.567 239.549 233.228 240.255 232.943C241.649 232.359 242.981 231.83 244.329 231.382C245.645 230.88 246.945 230.446 248.324 230.12C248.324 230.12 249.061 229.632 249.781 229.143C250.157 228.913 250.502 228.641 250.769 228.451C251.035 228.261 251.207 228.126 251.207 228.126C250.424 228.981 251.568 228.465 253.197 227.624C254.012 227.189 254.952 226.687 255.83 226.226C256.676 225.724 257.475 225.262 258.039 224.991C258.666 225.14 256.127 226.633 253.401 228.044C250.737 229.537 247.87 230.935 248.246 231.545C253.103 229.469 251.27 230.785 249.907 231.83C250.549 231.518 251.066 231.26 251.442 231.03C251.834 230.799 252.1 230.609 252.304 230.432C252.696 230.107 252.758 229.917 252.727 229.754C252.664 229.428 252.226 229.252 253.182 228.438C253.229 228.519 253.793 228.288 254.576 227.936C255.36 227.569 256.362 227.121 257.24 226.646C259.01 225.737 260.452 225.072 259.245 226.199C260.295 225.615 261.11 225.113 261.753 224.652C262.411 224.19 262.881 223.743 263.351 223.335C264.275 222.521 265.059 221.802 266.594 220.934C266.391 221.49 266.171 222.168 266.751 222.331C266.939 221.924 270.888 219.644 271.624 219.17C270.825 219.509 272.455 217.677 269.227 220.201C269.321 219.929 269.869 219.441 270.621 218.871C271.358 218.287 272.345 217.65 273.238 216.958C275.04 215.614 276.732 214.366 276.419 214.23C276.905 214.406 278.628 213.036 280.665 211.326C281.182 210.892 281.715 210.458 282.232 209.983C282.749 209.508 283.266 209.033 283.783 208.571C284.802 207.649 285.805 206.794 286.651 206.129C285.742 205.668 284.426 207.079 283.063 208.639C281.715 210.213 280.148 211.774 279.02 211.706C279.991 210.702 281.402 209.454 282.937 207.947C283.736 207.214 284.582 206.427 285.46 205.6C286.322 204.745 287.199 203.863 288.092 202.967C288.547 202.519 289.001 202.058 289.456 201.61C289.91 201.149 290.333 200.66 290.772 200.185C291.634 199.222 292.495 198.258 293.341 197.295C294.156 196.318 294.908 195.327 295.629 194.364C296.35 193.4 297.055 192.478 297.604 191.541C302.571 185.72 298.262 191.921 299.86 191.066C295.755 196.806 294 197.797 290.035 202.492C291.305 201.339 292.652 199.9 294.094 198.381C294.83 197.634 295.488 196.806 296.178 195.992C296.851 195.178 297.541 194.35 298.215 193.523C299.484 191.853 300.659 190.171 301.693 188.678C302.665 187.145 303.448 185.774 304.012 184.702C304.529 183.956 304.999 183.304 305.407 182.707C305.845 182.11 306.253 181.595 306.66 181.106C307.459 180.143 308.29 179.369 309.011 178.501C310.499 176.777 312.129 174.864 313.79 170.834C312.646 171.648 312.599 171.417 311.157 173.751C311.941 171.594 313.461 169.287 314.416 166.994C314.636 165.474 312.395 170.332 313.429 167.075C314.087 165.894 315.325 163.303 315.529 163.94L315.357 164.483C315.999 162.543 316.469 161.24 316.955 160.276C317.425 159.327 317.864 158.716 318.208 158.105C318.569 157.508 318.898 156.938 319.18 156.07C319.337 155.649 319.478 155.133 319.587 154.523C319.65 154.211 319.713 153.885 319.775 153.519C319.822 153.139 319.854 152.745 319.885 152.297C319.65 152.542 319.54 153.057 319.384 153.695C319.211 154.333 319.023 155.12 318.647 155.921C318.193 156.49 318.13 155.69 318.271 154.374C318.349 153.722 318.443 152.922 318.553 152.08C318.663 151.253 318.788 150.398 318.945 149.611C319.102 149.936 319.29 149.258 319.54 148.226C319.775 147.195 319.979 145.811 320.277 144.712C320.809 144.02 320.59 145.417 320.261 147.127C320.12 147.982 319.854 148.905 319.697 149.692C319.54 150.479 319.431 151.13 319.478 151.429C319.478 151.429 319.901 149.923 320.324 148.416C320.543 147.656 320.668 146.897 320.825 146.327C320.951 145.757 321.029 145.377 321.029 145.377L320.653 146.639C320.653 146.639 320.809 144.956 320.966 143.26C321.06 142.419 321.06 141.577 321.092 140.939C321.107 140.302 321.138 139.881 321.138 139.881C320.7 144.549 319.869 141.984 320.073 139.962C320.261 138.809 320.496 137.669 320.653 136.597C320.794 135.525 320.951 134.534 321.107 133.707C321.264 132.879 321.421 132.214 321.609 131.78C321.781 131.359 321.938 131.169 322.157 131.318C321.734 131.02 321.577 129.432 321.515 127.41C321.483 126.908 321.515 126.365 321.452 125.823C321.421 125.28 321.389 124.71 321.342 124.154C321.264 123.027 321.185 121.901 321.123 120.883C320.935 125.348 320.433 121.467 320.057 120.205C320.057 120.205 320.12 118.536 320.183 116.853C320.214 116.012 320.261 115.17 320.23 114.546C320.214 113.922 320.214 113.501 320.214 113.501C320.559 115.238 320.684 116.025 320.794 116.229C320.903 116.446 320.982 116.079 321.06 115.537C321.17 114.465 321.154 112.714 321.593 113.515C321.875 114.003 322.141 114.641 322.298 115.387C322.455 116.134 322.549 116.989 322.627 117.898C322.69 118.793 322.752 119.77 322.768 120.734C322.768 121.697 322.737 122.688 322.737 123.624C322.909 122.702 323.019 121.833 323.081 121.032C323.144 120.232 323.081 119.472 323.034 118.766C322.909 117.341 322.674 116.093 322.376 114.872C322.032 113.664 321.671 112.483 321.374 111.208C321.217 110.57 321.107 109.905 320.982 109.213C320.841 108.508 320.731 107.775 320.653 106.974C320.856 106.947 321.091 107.056 321.358 107.517C321.483 107.748 321.624 108.073 321.75 108.508C321.875 108.942 322.016 109.498 322.079 110.204C322.157 109.62 321.64 108.195 321.076 106.391C320.794 105.495 320.527 104.477 320.23 103.446C319.901 102.415 319.634 101.329 319.446 100.243C319.493 101.424 319.368 103.934 317.879 99.8364C317.879 99.8364 317.848 99.4836 317.785 98.9544C317.738 98.4251 317.597 97.7331 317.488 97.0139C317.253 95.6026 317.017 94.1913 317.017 94.1913C316.563 92.5901 316.077 91.7081 315.764 91.1653C315.435 90.6225 315.2 90.4325 314.965 90.2832C314.463 89.9983 313.993 89.849 312.662 87.42C312.662 87.42 312.724 87.6371 312.802 87.9628C312.881 88.2885 312.975 88.7363 313.069 89.1705C313.257 90.039 313.429 90.921 313.429 90.921C313.179 90.8532 312.865 90.3918 312.552 89.754C312.223 89.1162 311.894 88.2613 311.486 87.4743C310.703 85.873 309.935 84.3125 309.465 84.4075C310.186 85.9273 310.907 87.04 311.612 88.1935C312.27 89.374 312.897 90.5953 313.445 92.2644C313.257 93.0108 312.709 92.0066 312.066 90.6089C311.737 89.9033 311.392 89.1027 311.016 88.3835C310.625 87.6642 310.233 87.0265 309.919 86.6058C309.214 84.9367 308.744 83.7697 308.368 82.8741C307.976 81.9921 307.71 81.3814 307.491 80.8251C307.271 80.2687 307.083 79.7395 306.833 79.0474C306.582 78.3553 306.284 77.4733 305.72 76.2249C306.018 76.0485 306.566 76.3877 307.224 76.9984C307.851 77.6226 308.603 78.5046 309.34 79.3595C310.076 80.2144 310.813 81.0422 311.439 81.5578C312.066 82.0599 312.552 82.277 312.85 81.8428C311.956 80.2416 310.907 78.491 309.857 76.6863C308.776 74.8815 307.569 73.0767 306.488 71.299C304.185 67.798 302.069 64.5684 300.831 62.4922C299.766 61.2031 298.935 60.2939 298.277 59.6833C297.588 59.0862 297.086 58.7876 296.726 58.6655C296.005 58.4484 295.849 58.9912 295.802 59.5747C293.953 57.5257 293.263 56.3994 292.276 54.9474C292.276 54.9474 292.433 55.0831 292.652 55.2731C292.871 55.4766 293.169 55.748 293.451 56.0194C294.031 56.5758 294.611 57.1186 294.611 57.1186C293.921 56.3451 293.279 55.6123 292.621 54.9338C291.963 54.2689 291.305 53.6175 290.693 52.9933C289.44 51.7585 288.327 50.5643 287.042 49.4516C285.805 48.3117 284.567 47.1719 283.219 45.937C282.546 45.3399 281.84 44.7293 281.088 44.0779C280.352 43.4266 279.584 42.7345 278.754 42.0289C274.805 38.9757 275.745 40.8212 276.168 42.0018C276.168 42.0018 275.902 41.7982 275.51 41.4861C275.118 41.174 274.601 40.7533 274.068 40.3598C273.003 39.5592 271.938 38.7586 271.938 38.7586L272.455 39.3828C271.06 39.2335 268.052 36.7095 265.309 34.7283C266.25 34.9183 267.19 35.1083 268.13 35.2847C271.922 35.9632 275.667 36.6281 279.38 37.293L273.786 36.8995C278.158 37.2659 285.679 38.5686 288.092 39.0435L287.466 39.0028C295.253 41.1469 296.632 39.2335 302.555 41.2554L301.317 41.1876C306.112 41.8389 309.857 42.6395 313.602 43.3723C317.331 44.1322 321.013 44.8514 325.714 45.2857C326.497 45.4621 327.171 45.6385 327.767 45.7877C329.208 45.7877 330.634 45.747 332.076 45.7199C332.248 44.5665 332.499 43.4673 332.781 42.3817L333 42.531ZM266.829 48.0403C266.359 47.4026 266.156 46.914 266.626 47.0769C267.77 48.5153 271.608 51.6228 271.044 51.867C271.044 51.867 270.715 51.6228 270.371 51.3785C270.042 51.1343 269.697 50.9036 269.697 50.9036C270.543 51.6635 271.248 52.3827 271.906 53.0069C272.549 53.6447 273.175 54.1875 273.661 54.6896C274.633 55.6937 275.385 56.4129 276.011 56.9286C276.701 57.1593 276.92 56.9964 277.296 57.01C277.484 57.01 277.704 57.0778 278.033 57.2678C278.205 57.3628 278.393 57.4849 278.628 57.6478C278.848 57.8242 279.098 58.0413 279.412 58.3263C281.84 61.3659 281.01 60.9724 279.944 60.3753C278.879 59.7647 277.625 58.9641 279.13 61.0674C279.13 61.0674 279.474 61.3795 279.976 61.8544C280.462 62.3294 281.151 62.94 281.778 63.6049C283.047 64.9348 284.332 66.2511 284.332 66.2511C284.332 66.2511 284.457 66.631 284.582 67.0245C284.645 67.2145 284.708 67.4045 284.755 67.5538L284.817 67.798C285.538 68.9107 286.275 69.9828 287.011 71.0141C287.387 71.5297 287.763 72.0318 288.139 72.5339C288.5 73.036 288.86 73.5516 289.205 74.0537C289.926 75.0579 290.646 76.0349 291.399 76.9984C292.135 77.9754 292.809 78.966 293.53 79.9566C296.413 83.8918 299.139 88.0714 301.411 93.1465C301.192 93.2686 300.8 92.9022 300.33 92.2644C299.813 91.6266 299.202 90.7039 298.591 89.6862C297.415 87.6507 295.927 85.3167 295.269 84.109C295.66 85.8188 296.804 87.61 297.839 89.6047C298.371 90.5953 298.951 91.6131 299.452 92.658C299.907 93.7028 300.299 94.7748 300.581 95.8604C300.753 96.3489 300.957 96.8103 301.145 97.2581C301.333 97.7059 301.489 98.1266 301.677 98.5337C302.022 99.3343 302.398 100.013 302.727 100.556C303.401 101.641 303.981 102.143 304.138 101.763C305.892 106.648 304.529 105.414 304.529 106.079C304.717 106.255 304.921 106.499 305.109 106.811C305.281 107.123 305.438 107.517 305.595 107.938C305.892 108.792 306.19 109.851 306.472 111.004C306.629 111.574 306.707 112.171 306.817 112.768C306.911 113.379 307.005 113.976 307.115 114.573C307.209 115.17 307.318 115.767 307.412 116.324C307.491 116.894 307.553 117.45 307.616 117.966L306.989 118.196C306.989 118.196 307.334 119.784 307.679 121.372C307.929 122.973 308.164 124.588 308.164 124.588C308.18 122.919 308.807 124.411 309.214 124.398V126.067C309.59 124.479 309.7 122.756 309.622 121.005C309.543 120.137 309.418 119.241 309.293 118.346C309.23 117.898 309.152 117.45 309.073 117.002C309.011 116.554 308.917 116.107 308.807 115.659C308.603 114.763 308.399 113.868 308.211 112.986C308.039 112.104 307.898 111.221 307.694 110.353C307.522 109.485 307.397 108.616 307.318 107.761C307.287 107.327 307.271 106.893 307.271 106.472C307.24 106.051 307.24 105.631 307.24 105.196C308.023 107.11 307.632 104.409 308.415 106.35C308.713 108.019 308.697 108.372 308.493 108.589C309.214 109.498 310.249 112.117 309.449 108.589C310.875 108.521 311.941 115.713 312.646 120.68C312.505 121.684 312.285 121.928 312.113 121.697C312.019 121.589 311.941 121.358 311.847 121.046C311.737 120.734 311.627 120.34 311.518 119.906C311.063 118.156 310.593 115.672 310.06 114.709C310.154 115.17 310.28 115.605 310.405 116.052C310.515 116.5 310.625 116.934 310.734 117.409C310.938 118.359 311.095 119.418 311.048 120.788L309.982 120.178C310.06 120.598 310.123 120.965 310.186 121.304C310.233 121.643 310.264 121.928 310.311 122.186C310.389 122.688 310.468 123.068 310.531 123.312C310.672 123.828 310.797 123.882 310.922 123.787C311.189 123.597 311.502 122.729 312.019 123.489C312.364 123.95 312.536 124.561 312.614 125.266C312.708 125.958 312.646 126.745 312.536 127.519C312.317 129.079 311.988 130.613 311.972 131.549C311.972 131.549 311.972 131.413 311.972 131.223C311.956 131.033 311.941 130.762 311.909 130.518C311.862 130.002 311.815 129.486 311.815 129.486C311.126 134.765 312.019 136.027 311.22 140.817C311.22 140.817 310.954 141.347 310.625 141.876C310.311 142.405 309.998 142.934 309.998 142.934C310.264 142.215 310.499 141.55 310.625 140.939C310.75 140.329 310.813 139.772 310.86 139.257C310.922 138.225 310.86 137.384 310.766 136.611C310.53 135.077 310.123 133.87 310.546 132.187C309.7 136.489 309.214 135.946 308.87 134.06C308.682 133.11 308.588 131.82 308.384 130.613C308.18 129.391 307.976 128.252 307.788 127.6C307.82 129.419 307.835 131.156 307.585 132.689C307.475 133.449 307.35 134.155 307.209 134.792C307.068 135.43 306.911 136 306.692 136.475C306.833 137.818 306.77 139.175 306.613 140.546C306.394 141.903 306.049 143.26 305.736 144.603C305.595 145.282 305.391 145.947 305.203 146.612C305.031 147.277 304.858 147.941 304.733 148.606C304.576 149.271 304.514 149.95 304.388 150.601C304.279 151.253 304.216 151.917 304.216 152.582C303.166 155.269 304.294 150.031 303.354 152.908C301.521 158.146 299.39 163.655 297.071 169.178C295.52 171.879 295.363 171.241 294.548 171.838C294.078 172.639 293.545 173.398 293.075 174.118C292.605 174.85 292.135 175.556 291.712 176.248C291.305 176.954 290.834 177.592 290.411 178.229C289.988 178.881 289.581 179.505 289.189 180.116C288.437 181.364 287.607 182.504 286.854 183.657C286.478 184.227 286.102 184.811 285.726 185.381L284.535 187.05C284.144 187.606 283.736 188.162 283.329 188.719C283.125 189.004 282.906 189.289 282.702 189.574C282.483 189.845 282.263 190.13 282.028 190.415C281.12 191.528 280.179 192.695 279.114 193.902C278.017 195.069 276.842 196.291 275.526 197.58C274.836 198.191 274.131 198.828 273.379 199.493C273.003 199.819 272.611 200.158 272.22 200.497C271.828 200.837 271.42 201.176 270.982 201.502C270.982 201.502 271.091 201.379 271.232 201.203C271.389 201.027 271.577 200.769 271.749 200.511C272.126 200.009 272.486 199.493 272.486 199.493C271.138 200.687 269.744 201.664 268.647 202.614C268.099 203.089 267.613 203.537 267.205 203.971C266.798 204.406 266.438 204.799 266.203 205.193C264.98 205.6 263.68 206.441 262.238 207.472C260.765 208.449 259.245 209.698 257.6 210.892C256.77 211.475 255.924 212.059 255.093 212.642C254.67 212.927 254.247 213.199 253.84 213.484C253.417 213.755 252.978 213.986 252.555 214.23C251.693 214.705 250.847 215.139 250.016 215.492C249.202 215.858 248.387 216.13 247.603 216.293C245.817 217.107 244.516 217.813 243.467 218.45C242.385 219.034 241.571 219.577 240.819 220.092C240.066 220.608 239.377 221.164 238.484 221.693C237.591 222.223 236.557 222.779 235.131 223.43C234.974 223.118 236.4 221.816 233.344 222.888C223.865 226.769 214.244 229.578 204.137 231.83C194.015 234.083 183.36 235.67 171.483 236.824C171.671 236.675 172.846 236.457 173.441 236.362C171.514 236.512 169.602 236.715 167.691 236.865C165.779 237.014 163.868 237.19 161.972 237.367C158.18 237.665 154.419 238.018 150.721 238.235C143.341 238.71 136.243 238.968 129.772 238.547C128.518 238.656 126.199 238.642 124.397 238.737C122.595 238.819 121.357 238.981 122.423 239.348C125.353 239.579 125.713 240.366 125.494 240.841C124.068 240.841 122.924 240.841 121.968 240.8C121.028 240.759 120.292 240.651 119.712 240.569C118.553 240.393 118.004 240.176 117.565 239.972C117.127 239.755 116.813 239.551 116.139 239.348C115.466 239.185 114.432 238.954 112.551 238.751C111.47 238.004 112.692 237.977 114.165 238.004C115.654 238.059 117.44 238.004 117.503 237.516C117.503 237.516 116.829 237.502 115.826 237.475C114.823 237.435 113.476 237.326 112.128 237.231C110.781 237.136 109.417 237.082 108.415 236.96C107.396 236.851 106.722 236.783 106.722 236.783C105.249 236.417 103.761 236.132 102.272 235.86C100.799 235.535 99.3422 235.236 97.9006 234.951C97.1799 234.802 96.4591 234.653 95.754 234.503C95.0489 234.327 94.3751 234.137 93.7013 233.961C92.3537 233.581 91.0532 233.174 89.8154 232.699C92.0404 233.418 90.8652 232.047 94.4847 233.472C93.8893 233.377 94.2497 233.554 93.67 233.459C94.7511 233.744 95.6286 234.001 96.3807 234.164C97.1329 234.327 97.7283 234.436 98.2297 234.517C99.2325 234.68 99.8123 234.734 100.376 234.761C100.94 234.788 101.473 234.802 102.351 234.897C102.993 234.965 103.808 235.033 104.967 235.182C103.651 235.006 102.272 234.816 100.878 234.531C99.9063 234.354 98.9191 234.151 97.9163 233.974C96.9291 233.784 95.9263 233.594 94.9548 233.336C92.9962 232.861 91.0532 232.387 89.2513 231.884C87.465 231.328 85.8041 230.785 84.3468 230.283C84.5975 230.568 84.4095 230.636 83.9551 230.582C83.5007 230.527 82.7956 230.351 82.0278 230.093C80.4609 229.591 78.5336 228.926 77.6091 228.872L77.2801 228.668C77.1077 229.035 73.4411 227.8 72.2816 227.461L71.3572 225.968C68.8031 225.059 71.7959 226.755 69.2731 225.792C68.38 225.452 66.9228 224.842 65.2462 224.109C64.8232 223.919 64.4001 223.729 63.9457 223.539C63.5226 223.322 63.0839 223.091 62.6451 222.874C61.7677 222.413 60.8588 221.938 59.9814 221.476C58.2108 220.567 56.6595 219.522 55.5 218.695C54.3405 217.853 53.5884 217.202 53.5727 216.863C51.6454 215.723 50.3762 215.031 49.0443 214.366C48.7153 214.189 48.3862 214.013 48.0415 213.837C47.8692 213.742 47.6968 213.647 47.5244 213.552C47.352 213.443 47.1954 213.321 47.023 213.212C46.3336 212.737 45.5658 212.195 44.6883 211.489C45.174 211.503 46.1299 212.072 46.3649 212.072C45.4248 211.34 44.4376 210.58 43.4348 209.82C42.9177 209.454 42.479 209.019 41.9932 208.612C41.5075 208.205 41.0374 207.784 40.5517 207.364C38.5304 205.749 36.7754 203.89 34.9421 202.099C34.4564 201.651 34.096 201.203 33.7199 200.769C33.3439 200.321 32.9365 199.914 32.5917 199.425C32.2313 198.964 31.8867 198.489 31.5419 198.028C31.1972 197.553 30.8838 197.064 30.5705 196.589C29.9124 195.653 29.3796 194.622 28.8155 193.672C28.2984 192.681 27.8127 191.718 27.3896 190.754C25.619 187.796 24.1931 184.865 22.9709 182.205C22.3285 180.889 21.7957 179.6 21.2316 178.419C20.7146 177.225 20.1661 176.126 19.6804 175.095C19.9624 175.99 20.5109 177.754 20.7303 178.908C20.981 180.048 20.934 180.604 20.0408 179.057C18.9753 177.374 18.2388 174.538 17.3614 171.729C18.0351 172.272 16.3742 164.47 17.9882 170.047C18.4896 169.219 17.7531 166.22 17.33 163.411C16.9696 160.521 16.6093 157.807 17.33 157.82C17.2204 157.495 17.1107 156.735 17.0167 155.731C16.9227 154.726 16.813 153.492 16.7973 152.202C16.7816 150.913 16.6876 149.57 16.672 148.349C16.672 147.141 16.6092 146.055 16.4839 145.282C16.7973 144.956 16.8286 146.055 16.8286 147.236C16.8286 147.833 16.8286 148.444 16.8443 148.905C16.8756 149.366 16.954 149.678 17.048 149.678C17.048 149.678 17.048 149.448 17.0167 149.095C17.0167 148.756 17.0167 148.294 17.0167 147.819C17.0167 146.897 17.0323 145.974 17.0323 145.974H17.424C17.5807 144.237 17.7688 142.839 17.7688 141.659C17.7688 141.075 17.7688 140.532 17.7531 140.03C17.7531 139.528 17.7531 139.067 17.7061 138.633C17.6121 136.868 17.3457 135.417 17.7374 133.34L17.8471 133.53C17.8471 133.53 17.9568 132.811 18.0665 132.105C18.1135 131.739 18.1762 131.386 18.2232 131.128C18.2859 130.871 18.3172 130.681 18.3172 130.681C18.3172 130.681 18.3172 130.898 18.3329 131.223C18.3642 131.549 18.3955 131.997 18.4425 132.431C18.5209 133.3 18.5836 134.168 18.5836 134.168C18.803 133.055 18.9283 132.065 19.0536 131.128C19.1947 130.192 19.32 129.324 19.4297 128.428C19.4924 127.98 19.5394 127.519 19.6021 127.057C19.6804 126.596 19.7901 126.121 19.8998 125.633C20.1348 124.642 20.3698 123.556 20.7929 122.335L21.31 121.955L22.1405 118.956C21.9994 119.458 22.0778 119.675 22.2972 119.391C22.3128 118.631 22.6262 117.708 22.9709 116.663C23.159 116.147 23.347 115.605 23.5664 115.062C23.7857 114.519 24.0521 113.976 24.3184 113.42C24.8355 112.321 25.3213 111.221 25.807 110.244C26.2771 109.267 26.6532 108.385 26.8255 107.693C27.4209 106.798 28.3141 106.146 29.0976 105.346C29.8967 104.559 30.5861 103.622 31.1032 102.279L31.8553 103.283C31.3382 104.002 30.9622 104.586 30.6331 105.061C30.304 105.522 30.0377 105.889 29.8183 106.146C29.3796 106.689 29.0976 106.933 28.8155 107.191C28.5335 107.449 28.2828 107.734 27.8754 108.345C27.4836 108.969 26.8882 109.919 26.0891 111.561C26.5748 111.032 27.2016 110.394 27.8127 109.647C28.1261 109.267 28.4551 108.86 28.7842 108.426C28.9408 108.209 29.1132 107.992 29.2856 107.761C29.4579 107.53 29.646 107.3 29.834 107.069C30.5861 106.133 31.3382 105.101 32.1687 104.043C33.0305 102.985 33.8923 101.858 34.7855 100.718C38.4364 96.1725 42.8394 91.3553 46.6626 87.6914C49.4674 84.5025 53.9331 80.8386 58.0541 77.7311C62.1437 74.5829 65.9043 71.964 66.9228 70.2677L66.6094 71.3126C66.6094 71.3126 66.8131 71.1905 67.1579 70.9734C67.5182 70.7698 68.004 70.4441 68.6151 70.0913C69.8529 69.3857 71.4668 68.4222 73.1434 67.4995C76.4496 65.6404 79.8655 63.917 79.8655 63.917C85.3967 60.6467 91.3353 57.7428 97.0075 55.1102C98.4334 54.4317 99.7966 53.8347 101.144 53.2376C102.476 52.6134 103.824 52.0706 105.124 51.5142C106.409 50.9443 107.694 50.4286 108.916 49.8994C110.154 49.3566 111.329 48.841 112.473 48.3524C112.473 48.3524 113.178 48.2575 113.883 48.176C114.588 48.081 115.293 47.9996 115.293 47.9996C119.822 45.4892 128.393 42.8567 136.697 40.7533C144.986 38.5957 152.993 36.9402 156.252 35.2711C162.363 34.7962 154.623 36.3974 154.121 36.8995C156.346 36.6417 159.214 35.8139 162.113 35.1897C164.996 34.5383 167.91 34.0634 170.12 34.2805C170.167 34.6198 163.93 35.4068 166.782 35.244C168.443 35.3525 169.555 35.0404 170.746 34.7419C171.922 34.4569 173.175 34.172 175.04 34.3212C173.316 33.8327 180.681 32.2315 186.165 31.7022C185.486 31.7384 185 31.743 184.707 31.7158C183.861 31.268 187.951 31.0373 190.192 30.8338C190.192 30.8338 189.988 30.983 189.393 31.078C203.495 29.6803 218.819 29.124 234.191 30.1689C235.46 30.2503 236.713 30.3453 237.982 30.4674C238.186 30.5488 238.39 30.6302 238.578 30.7117C238.985 30.8745 239.377 31.0102 239.753 31.1595C240.145 31.3087 240.521 31.4444 240.913 31.5801C241.712 31.8379 242.527 32.0551 243.498 32.2315C241.492 31.2273 240.631 31.2952 239.032 30.576C239.957 30.6574 240.897 30.7524 241.837 30.8609C246.444 33.2356 249.531 35.9632 252.476 37.9037C252.476 37.9037 252.257 37.7951 251.928 37.6187C251.583 37.4559 251.129 37.2387 250.69 37.0352C249.781 36.601 248.888 36.1803 248.888 36.1803H249.139C248.763 36.0582 248.214 35.7868 247.619 35.4882C247.008 35.1897 246.334 34.8505 245.707 34.5383C244.47 33.9277 243.42 33.4663 243.482 33.887C245.253 34.4162 246.663 35.1761 248.12 36.0717C249.562 36.9945 251.145 37.9444 253.26 38.9893H253.009C253.918 39.4778 254.764 39.9798 255.579 40.4819C256.362 41.0112 257.115 41.554 257.804 42.0696C259.23 43.1145 260.436 44.2136 261.612 45.2178C262.802 46.2084 263.852 47.1854 264.996 47.9996C266.14 48.8002 267.268 49.5194 268.584 50.0487C268.005 49.5873 267.299 48.7731 266.845 48.1082L266.829 48.0403Z" fill="#D54B40"/>
<path d="M218.819 22.1355L218.788 22.1626C218.678 22.1083 218.584 22.054 218.459 21.9998C218.569 22.0405 218.694 22.0947 218.804 22.1355H218.819Z" fill="white"/>
</svg>
