<svg width="123" height="119" viewBox="0 0 123 119" fill="none" xmlns="http://www.w3.org/2000/svg">
<path d="M105.864 92.0769C102.686 88.276 99.0863 85.3114 94.8856 83.0906C94.3297 82.7837 93.7206 82.4896 93.2698 82.0556C91.1485 80.0686 88.9741 78.0944 86.9873 75.962C85.5003 74.3761 83.8187 73.3004 81.8206 72.5045C77.5204 70.8163 73.5676 68.5018 70.528 64.8597C70.1177 64.3595 69.6193 63.9144 69.069 63.5835C65.301 61.3376 61.5219 59.1396 57.7427 56.9416C56.8998 56.4664 55.9056 56.2086 55.1383 55.6248C53.388 54.3057 51.4095 53.6407 49.2768 53.4197C47.2688 53.2026 45.4176 52.7442 44.6239 50.6635C43.4167 51.316 42.5736 52.1294 41.7839 52.071C40.9647 52.0309 40.1763 51.2148 39.4385 50.6127C38.8028 50.1102 38.394 49.2819 37.7247 48.9231C36.9 48.4775 35.8442 48.0537 34.9984 48.2348C34.2058 48.4031 33.5783 49.368 32.9396 49.9514C34.6784 53.0365 37.5812 54.4736 40.0567 56.3413C41.1475 57.1524 42.7186 57.5199 44.1147 57.6697C45.879 57.8551 47.1112 58.5981 48.2383 59.8978C49.1904 60.9796 50.2684 62.1667 51.5272 62.6886C53.8362 63.6583 55.6957 65.1545 57.6377 66.6195C59.0463 67.6818 60.5838 68.6227 62.166 69.3718C65.0799 70.761 67.2389 73.338 70.3447 74.4436C71.2031 74.7455 71.9731 75.532 72.5765 76.2796C75.5195 79.798 79.0046 82.6094 83.1143 84.6826C84.5537 85.3984 85.7676 86.5415 87.074 87.504C90.5857 90.0943 94.1155 92.714 97.6216 95.3282C98.7305 96.1688 99.8802 96.5136 101.241 95.8466C101.807 95.5747 102.476 95.5039 103.122 95.4275C104.934 95.1945 105.667 94.1025 105.864 92.0769Z" fill="#D54B40"/>
<path d="M49.9513 100.119C50.5102 99.3406 51.0746 98.5377 51.6278 97.7828C50.7963 95.5417 50.0559 93.4481 49.2916 91.349C46.459 89.3977 46.4216 85.8011 44.6127 83.2302C43.5963 81.7796 42.9146 80.0788 42.0214 78.5307C40.9644 76.7169 39.8612 74.9933 38.3154 73.4441C36.7935 71.9005 35.3024 70.0104 34.8966 67.6667C34.8448 67.3514 34.7454 67.0249 34.6404 66.7224C33.6325 64.162 32.2015 63.6251 29.6317 64.8431C29.3489 64.9791 29.0002 65.0744 28.7719 65.2989C27.5283 66.3219 26.279 67.3688 24.8365 68.5979C26.0669 72.2462 27.338 75.8283 29.8483 78.9423C32.2747 81.9861 34.3902 85.2856 36.6821 88.4749C37.5347 89.6598 38.4055 90.8741 39.4514 91.8768C40.4553 92.8444 41.4004 93.8489 43.0878 94.0415C44.3592 94.1873 45.527 95.4206 46.8012 96.1988C46.157 96.8061 45.7116 97.2073 45.1262 97.7778C46.2504 99.7337 47.2625 101.739 48.51 103.598C49.2128 104.672 50.1747 105.604 51.1184 106.507C52.1041 107.445 53.3405 107.633 53.6151 106.889C53.8728 106.217 53.978 105.231 53.6854 104.657C53.0036 103.385 52.0334 102.274 51.1457 101.132C50.8559 100.761 50.4246 100.458 50.076 100.123C50.0619 100.398 50.0535 100.649 50.0395 100.923C49.9289 100.645 49.9373 100.394 49.9513 100.119Z" fill="#D54B40"/>
<path d="M17.7868 18.9918C19.7711 18.3443 21.7793 17.7023 23.7636 17.0548C24.2243 16.9099 24.7607 16.6564 25.1779 16.8046C27.6144 17.5514 30.1085 16.442 32.4106 16.9048C36.4616 17.7262 40.4932 17.1281 44.5204 17.5144C47.6151 17.8089 50.6118 18.3078 53.6224 18.9616C56.2759 19.5318 58.844 20.36 61.7525 19.6255C63.65 19.1346 65.8625 19.9806 67.9588 20.1426C69.5621 20.265 71.1879 20.2916 72.6778 20.3623C74.4495 18.0479 76.0811 15.9029 77.6483 13.8187C76.6011 12.285 75.2512 12.4746 73.9741 12.3527C69.6443 11.9714 65.2964 11.5606 60.9667 11.1794C59.1967 11.0179 57.4043 10.9524 55.6413 10.8684C53.2075 10.7538 50.7851 10.5914 48.3583 10.5542C45.7593 10.5021 43.2009 10.3836 40.6312 11.1721C38.9535 11.6892 37.1093 11.7378 35.3197 11.875C30.5669 12.2286 26.048 13.6223 21.578 15.1285C20.5151 15.4863 19.4367 16.0173 18.616 16.7349C18.1118 17.1728 18.0837 18.1516 17.8329 18.9015L17.7868 18.9918Z" fill="#D54B40"/>
<path d="M49.9514 100.119C49.9429 100.37 49.9583 100.626 49.9442 100.901C49.9583 100.626 49.9667 100.376 49.9808 100.101L49.9514 100.119Z" fill="#D54B40"/>
</svg>
