<svg width="499" height="244" viewBox="0 0 499 244" fill="none" xmlns="http://www.w3.org/2000/svg">
<path d="M161.524 47.48C161.22 46.92 160.78 46.496 160.204 46.208C159.644 45.904 158.98 45.752 158.212 45.752C156.884 45.752 155.82 46.192 155.02 47.072C154.22 47.936 153.82 49.096 153.82 50.552C153.82 52.104 154.236 53.32 155.068 54.2C155.916 55.064 157.076 55.496 158.548 55.496C159.556 55.496 160.404 55.24 161.092 54.728C161.796 54.216 162.308 53.48 162.628 52.52H157.42V49.496H166.348V53.312C166.044 54.336 165.524 55.288 164.788 56.168C164.068 57.048 163.148 57.76 162.028 58.304C160.908 58.848 159.644 59.12 158.236 59.12C156.572 59.12 155.084 58.76 153.772 58.04C152.476 57.304 151.46 56.288 150.724 54.992C150.004 53.696 149.644 52.216 149.644 50.552C149.644 48.888 150.004 47.408 150.724 46.112C151.46 44.8 152.476 43.784 153.772 43.064C155.068 42.328 156.548 41.96 158.212 41.96C160.228 41.96 161.924 42.448 163.3 43.424C164.692 44.4 165.612 45.752 166.06 47.48H161.524ZM174.717 59.192C173.405 59.192 172.221 58.912 171.165 58.352C170.125 57.792 169.301 56.992 168.693 55.952C168.101 54.912 167.805 53.696 167.805 52.304C167.805 50.928 168.109 49.72 168.717 48.68C169.325 47.624 170.157 46.816 171.213 46.256C172.269 45.696 173.453 45.416 174.765 45.416C176.077 45.416 177.261 45.696 178.317 46.256C179.373 46.816 180.205 47.624 180.813 48.68C181.421 49.72 181.725 50.928 181.725 52.304C181.725 53.68 181.413 54.896 180.789 55.952C180.181 56.992 179.341 57.792 178.269 58.352C177.213 58.912 176.029 59.192 174.717 59.192ZM174.717 55.64C175.501 55.64 176.165 55.352 176.709 54.776C177.269 54.2 177.549 53.376 177.549 52.304C177.549 51.232 177.277 50.408 176.733 49.832C176.205 49.256 175.549 48.968 174.765 48.968C173.965 48.968 173.301 49.256 172.773 49.832C172.245 50.392 171.981 51.216 171.981 52.304C171.981 53.376 172.237 54.2 172.749 54.776C173.277 55.352 173.933 55.64 174.717 55.64ZM191.366 55.52V59H189.278C187.79 59 186.63 58.64 185.798 57.92C184.966 57.184 184.55 55.992 184.55 54.344V49.016H182.918V45.608H184.55V42.344H188.654V45.608H191.342V49.016H188.654V54.392C188.654 54.792 188.75 55.08 188.942 55.256C189.134 55.432 189.454 55.52 189.902 55.52H191.366ZM204.186 59.192C203.018 59.192 201.978 58.992 201.066 58.592C200.154 58.192 199.434 57.648 198.906 56.96C198.378 56.256 198.082 55.472 198.018 54.608H202.074C202.122 55.072 202.338 55.448 202.722 55.736C203.106 56.024 203.578 56.168 204.138 56.168C204.65 56.168 205.042 56.072 205.314 55.88C205.602 55.672 205.746 55.408 205.746 55.088C205.746 54.704 205.546 54.424 205.146 54.248C204.746 54.056 204.098 53.848 203.202 53.624C202.242 53.4 201.442 53.168 200.802 52.928C200.162 52.672 199.61 52.28 199.146 51.752C198.682 51.208 198.45 50.48 198.45 49.568C198.45 48.8 198.658 48.104 199.074 47.48C199.506 46.84 200.13 46.336 200.946 45.968C201.778 45.6 202.762 45.416 203.898 45.416C205.578 45.416 206.898 45.832 207.858 46.664C208.834 47.496 209.394 48.6 209.538 49.976H205.746C205.682 49.512 205.474 49.144 205.122 48.872C204.786 48.6 204.338 48.464 203.778 48.464C203.298 48.464 202.93 48.56 202.674 48.752C202.418 48.928 202.29 49.176 202.29 49.496C202.29 49.88 202.49 50.168 202.89 50.36C203.306 50.552 203.946 50.744 204.81 50.936C205.802 51.192 206.61 51.448 207.234 51.704C207.858 51.944 208.402 52.344 208.866 52.904C209.346 53.448 209.594 54.184 209.61 55.112C209.61 55.896 209.386 56.6 208.938 57.224C208.506 57.832 207.874 58.312 207.042 58.664C206.226 59.016 205.274 59.192 204.186 59.192ZM225.345 45.608V59H221.241V57.176C220.825 57.768 220.257 58.248 219.537 58.616C218.833 58.968 218.049 59.144 217.185 59.144C216.161 59.144 215.257 58.92 214.473 58.472C213.689 58.008 213.081 57.344 212.649 56.48C212.217 55.616 212.001 54.6 212.001 53.432V45.608H216.081V52.88C216.081 53.776 216.313 54.472 216.777 54.968C217.241 55.464 217.865 55.712 218.649 55.712C219.449 55.712 220.081 55.464 220.545 54.968C221.009 54.472 221.241 53.776 221.241 52.88V45.608H225.345ZM233.381 45.416C234.325 45.416 235.149 45.608 235.853 45.992C236.573 46.376 237.125 46.88 237.509 47.504V45.608H241.613V58.976C241.613 60.208 241.365 61.32 240.869 62.312C240.389 63.32 239.645 64.12 238.637 64.712C237.645 65.304 236.405 65.6 234.917 65.6C232.933 65.6 231.325 65.128 230.093 64.184C228.861 63.256 228.157 61.992 227.981 60.392H232.037C232.165 60.904 232.469 61.304 232.949 61.592C233.429 61.896 234.021 62.048 234.725 62.048C235.573 62.048 236.245 61.8 236.741 61.304C237.253 60.824 237.509 60.048 237.509 58.976V57.08C237.109 57.704 236.557 58.216 235.853 58.616C235.149 59 234.325 59.192 233.381 59.192C232.277 59.192 231.277 58.912 230.381 58.352C229.485 57.776 228.773 56.968 228.245 55.928C227.733 54.872 227.477 53.656 227.477 52.28C227.477 50.904 227.733 49.696 228.245 48.656C228.773 47.616 229.485 46.816 230.381 46.256C231.277 45.696 232.277 45.416 233.381 45.416ZM237.509 52.304C237.509 51.28 237.221 50.472 236.645 49.88C236.085 49.288 235.397 48.992 234.581 48.992C233.765 48.992 233.069 49.288 232.493 49.88C231.933 50.456 231.653 51.256 231.653 52.28C231.653 53.304 231.933 54.12 232.493 54.728C233.069 55.32 233.765 55.616 234.581 55.616C235.397 55.616 236.085 55.32 236.645 54.728C237.221 54.136 237.509 53.328 237.509 52.304ZM249.67 45.416C250.614 45.416 251.438 45.608 252.142 45.992C252.862 46.376 253.414 46.88 253.798 47.504V45.608H257.902V58.976C257.902 60.208 257.654 61.32 257.158 62.312C256.678 63.32 255.934 64.12 254.926 64.712C253.934 65.304 252.694 65.6 251.206 65.6C249.222 65.6 247.614 65.128 246.382 64.184C245.15 63.256 244.446 61.992 244.27 60.392H248.326C248.454 60.904 248.758 61.304 249.238 61.592C249.718 61.896 250.31 62.048 251.014 62.048C251.862 62.048 252.534 61.8 253.03 61.304C253.542 60.824 253.798 60.048 253.798 58.976V57.08C253.398 57.704 252.846 58.216 252.142 58.616C251.438 59 250.614 59.192 249.67 59.192C248.566 59.192 247.566 58.912 246.67 58.352C245.774 57.776 245.062 56.968 244.534 55.928C244.022 54.872 243.766 53.656 243.766 52.28C243.766 50.904 244.022 49.696 244.534 48.656C245.062 47.616 245.774 46.816 246.67 46.256C247.566 45.696 248.566 45.416 249.67 45.416ZM253.798 52.304C253.798 51.28 253.51 50.472 252.934 49.88C252.374 49.288 251.686 48.992 250.87 48.992C250.054 48.992 249.358 49.288 248.782 49.88C248.222 50.456 247.942 51.256 247.942 52.28C247.942 53.304 248.222 54.12 248.782 54.728C249.358 55.32 250.054 55.616 250.87 55.616C251.686 55.616 252.374 55.32 252.934 54.728C253.51 54.136 253.798 53.328 253.798 52.304ZM273.495 52.088C273.495 52.472 273.471 52.872 273.423 53.288H264.135C264.199 54.12 264.463 54.76 264.927 55.208C265.407 55.64 265.991 55.856 266.679 55.856C267.703 55.856 268.415 55.424 268.815 54.56H273.183C272.959 55.44 272.551 56.232 271.959 56.936C271.383 57.64 270.655 58.192 269.775 58.592C268.895 58.992 267.911 59.192 266.823 59.192C265.511 59.192 264.343 58.912 263.319 58.352C262.295 57.792 261.495 56.992 260.919 55.952C260.343 54.912 260.055 53.696 260.055 52.304C260.055 50.912 260.335 49.696 260.895 48.656C261.471 47.616 262.271 46.816 263.295 46.256C264.319 45.696 265.495 45.416 266.823 45.416C268.119 45.416 269.271 45.688 270.279 46.232C271.287 46.776 272.071 47.552 272.631 48.56C273.207 49.568 273.495 50.744 273.495 52.088ZM269.295 51.008C269.295 50.304 269.055 49.744 268.575 49.328C268.095 48.912 267.495 48.704 266.775 48.704C266.087 48.704 265.503 48.904 265.023 49.304C264.559 49.704 264.271 50.272 264.159 51.008H269.295ZM281.108 59.192C279.94 59.192 278.9 58.992 277.988 58.592C277.076 58.192 276.356 57.648 275.828 56.96C275.3 56.256 275.004 55.472 274.94 54.608H278.996C279.044 55.072 279.26 55.448 279.644 55.736C280.028 56.024 280.5 56.168 281.06 56.168C281.572 56.168 281.964 56.072 282.236 55.88C282.524 55.672 282.668 55.408 282.668 55.088C282.668 54.704 282.468 54.424 282.068 54.248C281.668 54.056 281.02 53.848 280.124 53.624C279.164 53.4 278.364 53.168 277.724 52.928C277.084 52.672 276.532 52.28 276.068 51.752C275.604 51.208 275.372 50.48 275.372 49.568C275.372 48.8 275.58 48.104 275.996 47.48C276.428 46.84 277.052 46.336 277.868 45.968C278.7 45.6 279.684 45.416 280.82 45.416C282.5 45.416 283.82 45.832 284.78 46.664C285.756 47.496 286.316 48.6 286.46 49.976H282.668C282.604 49.512 282.396 49.144 282.044 48.872C281.708 48.6 281.26 48.464 280.7 48.464C280.22 48.464 279.852 48.56 279.596 48.752C279.34 48.928 279.212 49.176 279.212 49.496C279.212 49.88 279.412 50.168 279.812 50.36C280.228 50.552 280.868 50.744 281.732 50.936C282.724 51.192 283.532 51.448 284.156 51.704C284.78 51.944 285.324 52.344 285.788 52.904C286.268 53.448 286.516 54.184 286.532 55.112C286.532 55.896 286.308 56.6 285.86 57.224C285.428 57.832 284.796 58.312 283.964 58.664C283.148 59.016 282.196 59.192 281.108 59.192ZM296.507 55.52V59H294.419C292.931 59 291.771 58.64 290.939 57.92C290.107 57.184 289.691 55.992 289.691 54.344V49.016H288.059V45.608H289.691V42.344H293.795V45.608H296.483V49.016H293.795V54.392C293.795 54.792 293.891 55.08 294.083 55.256C294.275 55.432 294.595 55.52 295.043 55.52H296.507ZM300.857 44.216C300.137 44.216 299.545 44.008 299.081 43.592C298.633 43.16 298.409 42.632 298.409 42.008C298.409 41.368 298.633 40.84 299.081 40.424C299.545 39.992 300.137 39.776 300.857 39.776C301.561 39.776 302.137 39.992 302.585 40.424C303.049 40.84 303.281 41.368 303.281 42.008C303.281 42.632 303.049 43.16 302.585 43.592C302.137 44.008 301.561 44.216 300.857 44.216ZM302.897 45.608V59H298.793V45.608H302.897ZM311.967 59.192C310.655 59.192 309.471 58.912 308.415 58.352C307.375 57.792 306.551 56.992 305.943 55.952C305.351 54.912 305.055 53.696 305.055 52.304C305.055 50.928 305.359 49.72 305.967 48.68C306.575 47.624 307.407 46.816 308.463 46.256C309.519 45.696 310.703 45.416 312.015 45.416C313.327 45.416 314.511 45.696 315.567 46.256C316.623 46.816 317.455 47.624 318.063 48.68C318.671 49.72 318.975 50.928 318.975 52.304C318.975 53.68 318.663 54.896 318.039 55.952C317.431 56.992 316.591 57.792 315.519 58.352C314.463 58.912 313.279 59.192 311.967 59.192ZM311.967 55.64C312.751 55.64 313.415 55.352 313.959 54.776C314.519 54.2 314.799 53.376 314.799 52.304C314.799 51.232 314.527 50.408 313.983 49.832C313.455 49.256 312.799 48.968 312.015 48.968C311.215 48.968 310.551 49.256 310.023 49.832C309.495 50.392 309.231 51.216 309.231 52.304C309.231 53.376 309.487 54.2 309.999 54.776C310.527 55.352 311.183 55.64 311.967 55.64ZM329.312 45.464C330.88 45.464 332.128 45.976 333.056 47C334 48.008 334.472 49.4 334.472 51.176V59H330.392V51.728C330.392 50.832 330.16 50.136 329.696 49.64C329.232 49.144 328.608 48.896 327.824 48.896C327.04 48.896 326.416 49.144 325.952 49.64C325.488 50.136 325.256 50.832 325.256 51.728V59H321.152V45.608H325.256V47.384C325.672 46.792 326.232 46.328 326.936 45.992C327.64 45.64 328.432 45.464 329.312 45.464ZM342.244 41.216C343.956 41.216 345.324 41.664 346.348 42.56C347.388 43.456 347.908 44.72 347.908 46.352C347.908 47.856 347.412 49.032 346.42 49.88C345.444 50.712 344.148 51.136 342.532 51.152L342.412 52.952H338.812L338.692 48.488H340.132C341.364 48.488 342.3 48.336 342.94 48.032C343.596 47.728 343.924 47.176 343.924 46.376C343.924 45.816 343.772 45.376 343.468 45.056C343.164 44.736 342.74 44.576 342.196 44.576C341.62 44.576 341.172 44.744 340.852 45.08C340.532 45.4 340.372 45.84 340.372 46.4H336.508C336.476 45.424 336.676 44.544 337.108 43.76C337.556 42.976 338.212 42.36 339.076 41.912C339.956 41.448 341.012 41.216 342.244 41.216ZM340.66 59.192C339.94 59.192 339.348 58.984 338.884 58.568C338.436 58.136 338.212 57.608 338.212 56.984C338.212 56.344 338.436 55.808 338.884 55.376C339.348 54.944 339.94 54.728 340.66 54.728C341.364 54.728 341.94 54.944 342.388 55.376C342.852 55.808 343.084 56.344 343.084 56.984C343.084 57.608 342.852 58.136 342.388 58.568C341.94 58.984 341.364 59.192 340.66 59.192ZM115.02 86.624C115.02 84.992 115.388 83.528 116.124 82.232C116.86 80.92 117.86 79.896 119.124 79.16C120.404 78.424 121.82 78.056 123.372 78.056C125.196 78.056 126.788 78.496 128.148 79.376C129.508 80.256 130.5 81.504 131.124 83.12H128.508C128.044 82.112 127.372 81.336 126.492 80.792C125.628 80.248 124.588 79.976 123.372 79.976C122.204 79.976 121.156 80.248 120.228 80.792C119.3 81.336 118.572 82.112 118.044 83.12C117.516 84.112 117.252 85.28 117.252 86.624C117.252 87.952 117.516 89.12 118.044 90.128C118.572 91.12 119.3 91.888 120.228 92.432C121.156 92.976 122.204 93.248 123.372 93.248C124.588 93.248 125.628 92.984 126.492 92.456C127.372 91.912 128.044 91.136 128.508 90.128H131.124C130.5 91.728 129.508 92.968 128.148 93.848C126.788 94.712 125.196 95.144 123.372 95.144C121.82 95.144 120.404 94.784 119.124 94.064C117.86 93.328 116.86 92.312 116.124 91.016C115.388 89.72 115.02 88.256 115.02 86.624ZM140.903 81.608C141.895 81.608 142.791 81.824 143.591 82.256C144.391 82.672 145.015 83.304 145.463 84.152C145.927 85 146.159 86.032 146.159 87.248V95H143.999V87.56C143.999 86.248 143.671 85.248 143.015 84.56C142.359 83.856 141.463 83.504 140.327 83.504C139.175 83.504 138.255 83.864 137.567 84.584C136.895 85.304 136.559 86.352 136.559 87.728V95H134.375V77.24H136.559V83.72C136.991 83.048 137.583 82.528 138.335 82.16C139.103 81.792 139.959 81.608 140.903 81.608ZM161.727 87.92C161.727 88.336 161.703 88.776 161.655 89.24H151.143C151.223 90.536 151.663 91.552 152.463 92.288C153.279 93.008 154.263 93.368 155.415 93.368C156.359 93.368 157.143 93.152 157.767 92.72C158.407 92.272 158.855 91.68 159.111 90.944H161.463C161.111 92.208 160.407 93.24 159.351 94.04C158.295 94.824 156.983 95.216 155.415 95.216C154.167 95.216 153.047 94.936 152.055 94.376C151.079 93.816 150.311 93.024 149.751 92C149.191 90.96 148.911 89.76 148.911 88.4C148.911 87.04 149.183 85.848 149.727 84.824C150.271 83.8 151.031 83.016 152.007 82.472C152.999 81.912 154.135 81.632 155.415 81.632C156.663 81.632 157.767 81.904 158.727 82.448C159.687 82.992 160.423 83.744 160.935 84.704C161.463 85.648 161.727 86.72 161.727 87.92ZM159.471 87.464C159.471 86.632 159.287 85.92 158.919 85.328C158.551 84.72 158.047 84.264 157.407 83.96C156.783 83.64 156.087 83.48 155.319 83.48C154.215 83.48 153.271 83.832 152.487 84.536C151.719 85.24 151.279 86.216 151.167 87.464H159.471ZM163.794 88.4C163.794 87.04 164.066 85.856 164.61 84.848C165.154 83.824 165.906 83.032 166.866 82.472C167.842 81.912 168.954 81.632 170.202 81.632C171.818 81.632 173.146 82.024 174.186 82.808C175.242 83.592 175.938 84.68 176.274 86.072H173.922C173.698 85.272 173.258 84.64 172.602 84.176C171.962 83.712 171.162 83.48 170.202 83.48C168.954 83.48 167.946 83.912 167.178 84.776C166.41 85.624 166.026 86.832 166.026 88.4C166.026 89.984 166.41 91.208 167.178 92.072C167.946 92.936 168.954 93.368 170.202 93.368C171.162 93.368 171.962 93.144 172.602 92.696C173.242 92.248 173.682 91.608 173.922 90.776H176.274C175.922 92.12 175.218 93.2 174.162 94.016C173.106 94.816 171.786 95.216 170.202 95.216C168.954 95.216 167.842 94.936 166.866 94.376C165.906 93.816 165.154 93.024 164.61 92C164.066 90.976 163.794 89.776 163.794 88.4ZM186.532 95L181.372 89.192V95H179.188V77.24H181.372V87.68L186.436 81.848H189.484L183.292 88.4L189.508 95H186.532ZM200.602 83.648V91.4C200.602 92.04 200.738 92.496 201.01 92.768C201.282 93.024 201.754 93.152 202.426 93.152H204.034V95H202.066C200.85 95 199.938 94.72 199.33 94.16C198.722 93.6 198.418 92.68 198.418 91.4V83.648H196.714V81.848H198.418V78.536H200.602V81.848H204.034V83.648H200.602ZM213.208 81.608C214.2 81.608 215.096 81.824 215.896 82.256C216.696 82.672 217.32 83.304 217.768 84.152C218.232 85 218.464 86.032 218.464 87.248V95H216.304V87.56C216.304 86.248 215.976 85.248 215.32 84.56C214.664 83.856 213.768 83.504 212.632 83.504C211.48 83.504 210.56 83.864 209.872 84.584C209.2 85.304 208.864 86.352 208.864 87.728V95H206.68V77.24H208.864V83.72C209.296 83.048 209.888 82.528 210.64 82.16C211.408 81.792 212.264 81.608 213.208 81.608ZM223.16 79.712C222.744 79.712 222.392 79.568 222.104 79.28C221.816 78.992 221.672 78.64 221.672 78.224C221.672 77.808 221.816 77.456 222.104 77.168C222.392 76.88 222.744 76.736 223.16 76.736C223.56 76.736 223.896 76.88 224.168 77.168C224.456 77.456 224.6 77.808 224.6 78.224C224.6 78.64 224.456 78.992 224.168 79.28C223.896 79.568 223.56 79.712 223.16 79.712ZM224.216 81.848V95H222.032V81.848H224.216ZM232.594 95.216C231.586 95.216 230.682 95.048 229.882 94.712C229.082 94.36 228.45 93.88 227.986 93.272C227.522 92.648 227.266 91.936 227.218 91.136H229.474C229.538 91.792 229.842 92.328 230.386 92.744C230.946 93.16 231.674 93.368 232.57 93.368C233.402 93.368 234.058 93.184 234.538 92.816C235.018 92.448 235.258 91.984 235.258 91.424C235.258 90.848 235.002 90.424 234.49 90.152C233.978 89.864 233.186 89.584 232.114 89.312C231.138 89.056 230.338 88.8 229.714 88.544C229.106 88.272 228.578 87.88 228.13 87.368C227.698 86.84 227.482 86.152 227.482 85.304C227.482 84.632 227.682 84.016 228.082 83.456C228.482 82.896 229.05 82.456 229.786 82.136C230.522 81.8 231.362 81.632 232.306 81.632C233.762 81.632 234.938 82 235.834 82.736C236.73 83.472 237.21 84.48 237.274 85.76H235.09C235.042 85.072 234.762 84.52 234.25 84.104C233.754 83.688 233.082 83.48 232.234 83.48C231.45 83.48 230.826 83.648 230.362 83.984C229.898 84.32 229.666 84.76 229.666 85.304C229.666 85.736 229.802 86.096 230.074 86.384C230.362 86.656 230.714 86.88 231.13 87.056C231.562 87.216 232.154 87.4 232.906 87.608C233.85 87.864 234.618 88.12 235.21 88.376C235.802 88.616 236.306 88.984 236.722 89.48C237.154 89.976 237.378 90.624 237.394 91.424C237.394 92.144 237.194 92.792 236.794 93.368C236.394 93.944 235.826 94.4 235.09 94.736C234.37 95.056 233.538 95.216 232.594 95.216ZM249.059 84.296C249.507 83.512 250.163 82.872 251.027 82.376C251.891 81.88 252.875 81.632 253.979 81.632C255.163 81.632 256.227 81.912 257.171 82.472C258.115 83.032 258.859 83.824 259.403 84.848C259.947 85.856 260.219 87.032 260.219 88.376C260.219 89.704 259.947 90.888 259.403 91.928C258.859 92.968 258.107 93.776 257.147 94.352C256.203 94.928 255.147 95.216 253.979 95.216C252.843 95.216 251.843 94.968 250.979 94.472C250.131 93.976 249.491 93.344 249.059 92.576V95H246.875V77.24H249.059V84.296ZM257.987 88.376C257.987 87.384 257.787 86.52 257.387 85.784C256.987 85.048 256.443 84.488 255.755 84.104C255.083 83.72 254.339 83.528 253.523 83.528C252.723 83.528 251.979 83.728 251.291 84.128C250.619 84.512 250.075 85.08 249.659 85.832C249.259 86.568 249.059 87.424 249.059 88.4C249.059 89.392 249.259 90.264 249.659 91.016C250.075 91.752 250.619 92.32 251.291 92.72C251.979 93.104 252.723 93.296 253.523 93.296C254.339 93.296 255.083 93.104 255.755 92.72C256.443 92.32 256.987 91.752 257.387 91.016C257.787 90.264 257.987 89.384 257.987 88.376ZM274.758 81.848V95H272.574V93.056C272.158 93.728 271.574 94.256 270.822 94.64C270.086 95.008 269.27 95.192 268.374 95.192C267.35 95.192 266.43 94.984 265.614 94.568C264.798 94.136 264.15 93.496 263.67 92.648C263.206 91.8 262.974 90.768 262.974 89.552V81.848H265.134V89.264C265.134 90.56 265.462 91.56 266.118 92.264C266.774 92.952 267.67 93.296 268.806 93.296C269.974 93.296 270.894 92.936 271.566 92.216C272.238 91.496 272.574 90.448 272.574 89.072V81.848H274.758ZM281.11 83.648V91.4C281.11 92.04 281.246 92.496 281.518 92.768C281.79 93.024 282.262 93.152 282.934 93.152H284.542V95H282.574C281.358 95 280.446 94.72 279.838 94.16C279.23 93.6 278.926 92.68 278.926 91.4V83.648H277.222V81.848H278.926V78.536H281.11V81.848H284.542V83.648H281.11ZM289.852 83.648V91.4C289.852 92.04 289.988 92.496 290.26 92.768C290.532 93.024 291.004 93.152 291.676 93.152H293.284V95H291.316C290.1 95 289.188 94.72 288.58 94.16C287.972 93.6 287.668 92.68 287.668 91.4V83.648H285.964V81.848H287.668V78.536H289.852V81.848H293.284V83.648H289.852ZM301.666 95.216C300.434 95.216 299.314 94.936 298.306 94.376C297.314 93.816 296.53 93.024 295.954 92C295.394 90.96 295.114 89.76 295.114 88.4C295.114 87.056 295.402 85.872 295.978 84.848C296.57 83.808 297.37 83.016 298.378 82.472C299.386 81.912 300.514 81.632 301.762 81.632C303.01 81.632 304.138 81.912 305.146 82.472C306.154 83.016 306.946 83.8 307.522 84.824C308.114 85.848 308.41 87.04 308.41 88.4C308.41 89.76 308.106 90.96 307.498 92C306.906 93.024 306.098 93.816 305.074 94.376C304.05 94.936 302.914 95.216 301.666 95.216ZM301.666 93.296C302.45 93.296 303.186 93.112 303.874 92.744C304.562 92.376 305.114 91.824 305.53 91.088C305.962 90.352 306.178 89.456 306.178 88.4C306.178 87.344 305.97 86.448 305.554 85.712C305.138 84.976 304.594 84.432 303.922 84.08C303.25 83.712 302.522 83.528 301.738 83.528C300.938 83.528 300.202 83.712 299.53 84.08C298.874 84.432 298.346 84.976 297.946 85.712C297.546 86.448 297.346 87.344 297.346 88.4C297.346 89.472 297.538 90.376 297.922 91.112C298.322 91.848 298.85 92.4 299.506 92.768C300.162 93.12 300.882 93.296 301.666 93.296ZM317.69 81.608C319.29 81.608 320.586 82.096 321.578 83.072C322.57 84.032 323.066 85.424 323.066 87.248V95H320.906V87.56C320.906 86.248 320.578 85.248 319.922 84.56C319.266 83.856 318.37 83.504 317.234 83.504C316.082 83.504 315.162 83.864 314.474 84.584C313.802 85.304 313.466 86.352 313.466 87.728V95H311.282V81.848H313.466V83.72C313.898 83.048 314.482 82.528 315.218 82.16C315.97 81.792 316.794 81.608 317.69 81.608ZM339.56 81.608C340.552 81.608 341.448 81.824 342.248 82.256C343.048 82.672 343.672 83.304 344.12 84.152C344.584 85 344.816 86.032 344.816 87.248V95H342.656V87.56C342.656 86.248 342.328 85.248 341.672 84.56C341.016 83.856 340.12 83.504 338.984 83.504C337.832 83.504 336.912 83.864 336.224 84.584C335.552 85.304 335.216 86.352 335.216 87.728V95H333.032V77.24H335.216V83.72C335.648 83.048 336.24 82.528 336.992 82.16C337.76 81.792 338.616 81.608 339.56 81.608ZM360.383 87.92C360.383 88.336 360.359 88.776 360.311 89.24H349.799C349.879 90.536 350.319 91.552 351.119 92.288C351.935 93.008 352.919 93.368 354.071 93.368C355.015 93.368 355.799 93.152 356.423 92.72C357.063 92.272 357.511 91.68 357.767 90.944H360.119C359.767 92.208 359.063 93.24 358.007 94.04C356.951 94.824 355.639 95.216 354.071 95.216C352.823 95.216 351.703 94.936 350.711 94.376C349.735 93.816 348.967 93.024 348.407 92C347.847 90.96 347.567 89.76 347.567 88.4C347.567 87.04 347.839 85.848 348.383 84.824C348.927 83.8 349.687 83.016 350.663 82.472C351.655 81.912 352.791 81.632 354.071 81.632C355.319 81.632 356.423 81.904 357.383 82.448C358.343 82.992 359.079 83.744 359.591 84.704C360.119 85.648 360.383 86.72 360.383 87.92ZM358.127 87.464C358.127 86.632 357.943 85.92 357.575 85.328C357.207 84.72 356.703 84.264 356.063 83.96C355.439 83.64 354.743 83.48 353.975 83.48C352.871 83.48 351.927 83.832 351.143 84.536C350.375 85.24 349.935 86.216 349.823 87.464H358.127ZM365.45 83.984C365.834 83.232 366.378 82.648 367.082 82.232C367.802 81.816 368.674 81.608 369.698 81.608V83.864H369.122C366.674 83.864 365.45 85.192 365.45 87.848V95H363.266V81.848H365.45V83.984ZM384.219 87.92C384.219 88.336 384.195 88.776 384.147 89.24H373.635C373.715 90.536 374.155 91.552 374.955 92.288C375.771 93.008 376.755 93.368 377.907 93.368C378.851 93.368 379.635 93.152 380.259 92.72C380.899 92.272 381.347 91.68 381.603 90.944H383.955C383.603 92.208 382.899 93.24 381.843 94.04C380.787 94.824 379.475 95.216 377.907 95.216C376.659 95.216 375.539 94.936 374.547 94.376C373.571 93.816 372.803 93.024 372.243 92C371.683 90.96 371.403 89.76 371.403 88.4C371.403 87.04 371.675 85.848 372.219 84.824C372.763 83.8 373.523 83.016 374.499 82.472C375.491 81.912 376.627 81.632 377.907 81.632C379.155 81.632 380.259 81.904 381.219 82.448C382.179 82.992 382.915 83.744 383.427 84.704C383.955 85.648 384.219 86.72 384.219 87.92ZM381.963 87.464C381.963 86.632 381.779 85.92 381.411 85.328C381.043 84.72 380.539 84.264 379.899 83.96C379.275 83.64 378.579 83.48 377.811 83.48C376.707 83.48 375.763 83.832 374.979 84.536C374.211 85.24 373.771 86.216 373.659 87.464H381.963ZM389.358 91.976L386.67 98.432H385.206L386.958 91.976H389.358ZM121.15 114.272L115.702 124.688V131H113.518V124.688L108.046 114.272H110.47L114.598 122.744L118.726 114.272H121.15ZM129.189 131.216C127.957 131.216 126.837 130.936 125.829 130.376C124.837 129.816 124.053 129.024 123.477 128C122.917 126.96 122.637 125.76 122.637 124.4C122.637 123.056 122.925 121.872 123.501 120.848C124.093 119.808 124.893 119.016 125.901 118.472C126.909 117.912 128.037 117.632 129.285 117.632C130.533 117.632 131.661 117.912 132.669 118.472C133.677 119.016 134.469 119.8 135.045 120.824C135.637 121.848 135.933 123.04 135.933 124.4C135.933 125.76 135.629 126.96 135.021 128C134.429 129.024 133.621 129.816 132.597 130.376C131.573 130.936 130.437 131.216 129.189 131.216ZM129.189 129.296C129.973 129.296 130.709 129.112 131.397 128.744C132.085 128.376 132.637 127.824 133.053 127.088C133.485 126.352 133.701 125.456 133.701 124.4C133.701 123.344 133.493 122.448 133.077 121.712C132.661 120.976 132.117 120.432 131.445 120.08C130.773 119.712 130.045 119.528 129.261 119.528C128.461 119.528 127.725 119.712 127.053 120.08C126.397 120.432 125.869 120.976 125.469 121.712C125.069 122.448 124.869 123.344 124.869 124.4C124.869 125.472 125.061 126.376 125.445 127.112C125.845 127.848 126.373 128.4 127.029 128.768C127.685 129.12 128.405 129.296 129.189 129.296ZM150.469 117.848V131H148.285V129.056C147.869 129.728 147.285 130.256 146.533 130.64C145.797 131.008 144.981 131.192 144.085 131.192C143.061 131.192 142.141 130.984 141.325 130.568C140.509 130.136 139.861 129.496 139.381 128.648C138.917 127.8 138.685 126.768 138.685 125.552V117.848H140.845V125.264C140.845 126.56 141.173 127.56 141.829 128.264C142.485 128.952 143.381 129.296 144.517 129.296C145.685 129.296 146.605 128.936 147.277 128.216C147.949 127.496 148.285 126.448 148.285 125.072V117.848H150.469ZM159.739 124.4C159.739 123.04 160.011 121.856 160.555 120.848C161.099 119.824 161.851 119.032 162.811 118.472C163.787 117.912 164.899 117.632 166.147 117.632C167.763 117.632 169.091 118.024 170.131 118.808C171.187 119.592 171.883 120.68 172.219 122.072H169.867C169.643 121.272 169.203 120.64 168.547 120.176C167.907 119.712 167.107 119.48 166.147 119.48C164.899 119.48 163.891 119.912 163.123 120.776C162.355 121.624 161.971 122.832 161.971 124.4C161.971 125.984 162.355 127.208 163.123 128.072C163.891 128.936 164.899 129.368 166.147 129.368C167.107 129.368 167.907 129.144 168.547 128.696C169.187 128.248 169.627 127.608 169.867 126.776H172.219C171.867 128.12 171.163 129.2 170.107 130.016C169.051 130.816 167.731 131.216 166.147 131.216C164.899 131.216 163.787 130.936 162.811 130.376C161.851 129.816 161.099 129.024 160.555 128C160.011 126.976 159.739 125.776 159.739 124.4ZM174.317 124.376C174.317 123.032 174.589 121.856 175.133 120.848C175.677 119.824 176.421 119.032 177.365 118.472C178.325 117.912 179.389 117.632 180.557 117.632C181.709 117.632 182.709 117.88 183.557 118.376C184.405 118.872 185.037 119.496 185.453 120.248V117.848H187.661V131H185.453V128.552C185.021 129.32 184.373 129.96 183.509 130.472C182.661 130.968 181.669 131.216 180.533 131.216C179.365 131.216 178.309 130.928 177.365 130.352C176.421 129.776 175.677 128.968 175.133 127.928C174.589 126.888 174.317 125.704 174.317 124.376ZM185.453 124.4C185.453 123.408 185.253 122.544 184.853 121.808C184.453 121.072 183.909 120.512 183.221 120.128C182.549 119.728 181.805 119.528 180.989 119.528C180.173 119.528 179.429 119.72 178.757 120.104C178.085 120.488 177.549 121.048 177.149 121.784C176.749 122.52 176.549 123.384 176.549 124.376C176.549 125.384 176.749 126.264 177.149 127.016C177.549 127.752 178.085 128.32 178.757 128.72C179.429 129.104 180.173 129.296 180.989 129.296C181.805 129.296 182.549 129.104 183.221 128.72C183.909 128.32 184.453 127.752 184.853 127.016C185.253 126.264 185.453 125.392 185.453 124.4ZM197.76 117.608C199.36 117.608 200.656 118.096 201.648 119.072C202.64 120.032 203.136 121.424 203.136 123.248V131H200.976V123.56C200.976 122.248 200.648 121.248 199.992 120.56C199.336 119.856 198.44 119.504 197.304 119.504C196.152 119.504 195.232 119.864 194.544 120.584C193.872 121.304 193.536 122.352 193.536 123.728V131H191.352V117.848H193.536V119.72C193.968 119.048 194.552 118.528 195.288 118.16C196.04 117.792 196.864 117.608 197.76 117.608ZM212.286 124.4C212.286 123.04 212.558 121.856 213.102 120.848C213.646 119.824 214.398 119.032 215.358 118.472C216.334 117.912 217.446 117.632 218.694 117.632C220.31 117.632 221.638 118.024 222.678 118.808C223.734 119.592 224.43 120.68 224.766 122.072H222.414C222.19 121.272 221.75 120.64 221.094 120.176C220.454 119.712 219.654 119.48 218.694 119.48C217.446 119.48 216.438 119.912 215.67 120.776C214.902 121.624 214.518 122.832 214.518 124.4C214.518 125.984 214.902 127.208 215.67 128.072C216.438 128.936 217.446 129.368 218.694 129.368C219.654 129.368 220.454 129.144 221.094 128.696C221.734 128.248 222.174 127.608 222.414 126.776H224.766C224.414 128.12 223.71 129.2 222.654 130.016C221.598 130.816 220.278 131.216 218.694 131.216C217.446 131.216 216.334 130.936 215.358 130.376C214.398 129.816 213.646 129.024 213.102 128C212.558 126.976 212.286 125.776 212.286 124.4ZM229.864 113.24V131H227.68V113.24H229.864ZM234.714 115.712C234.298 115.712 233.946 115.568 233.658 115.28C233.37 114.992 233.226 114.64 233.226 114.224C233.226 113.808 233.37 113.456 233.658 113.168C233.946 112.88 234.298 112.736 234.714 112.736C235.114 112.736 235.45 112.88 235.722 113.168C236.01 113.456 236.154 113.808 236.154 114.224C236.154 114.64 236.01 114.992 235.722 115.28C235.45 115.568 235.114 115.712 234.714 115.712ZM235.77 117.848V131H233.586V117.848H235.77ZM238.677 124.4C238.677 123.04 238.949 121.856 239.493 120.848C240.037 119.824 240.789 119.032 241.749 118.472C242.725 117.912 243.837 117.632 245.085 117.632C246.701 117.632 248.029 118.024 249.069 118.808C250.125 119.592 250.821 120.68 251.157 122.072H248.805C248.581 121.272 248.141 120.64 247.485 120.176C246.845 119.712 246.045 119.48 245.085 119.48C243.837 119.48 242.829 119.912 242.061 120.776C241.293 121.624 240.909 122.832 240.909 124.4C240.909 125.984 241.293 127.208 242.061 128.072C242.829 128.936 243.837 129.368 245.085 129.368C246.045 129.368 246.845 129.144 247.485 128.696C248.125 128.248 248.565 127.608 248.805 126.776H251.157C250.805 128.12 250.101 129.2 249.045 130.016C247.989 130.816 246.669 131.216 245.085 131.216C243.837 131.216 242.725 130.936 241.749 130.376C240.789 129.816 240.037 129.024 239.493 128C238.949 126.976 238.677 125.776 238.677 124.4ZM261.415 131L256.255 125.192V131H254.071V113.24H256.255V123.68L261.319 117.848H264.367L258.175 124.4L264.391 131H261.415ZM273.949 115.712C273.533 115.712 273.181 115.568 272.893 115.28C272.605 114.992 272.461 114.64 272.461 114.224C272.461 113.808 272.605 113.456 272.893 113.168C273.181 112.88 273.533 112.736 273.949 112.736C274.349 112.736 274.685 112.88 274.957 113.168C275.245 113.456 275.389 113.808 275.389 114.224C275.389 114.64 275.245 114.992 274.957 115.28C274.685 115.568 274.349 115.712 273.949 115.712ZM275.005 117.848V131H272.821V117.848H275.005ZM281.391 119.648V127.4C281.391 128.04 281.527 128.496 281.799 128.768C282.071 129.024 282.543 129.152 283.215 129.152H284.823V131H282.855C281.639 131 280.727 130.72 280.119 130.16C279.511 129.6 279.207 128.68 279.207 127.4V119.648H277.503V117.848H279.207V114.536H281.391V117.848H284.823V119.648H281.391ZM293.052 124.376C293.052 123.032 293.324 121.856 293.868 120.848C294.412 119.824 295.156 119.032 296.1 118.472C297.06 117.912 298.124 117.632 299.292 117.632C300.444 117.632 301.444 117.88 302.292 118.376C303.14 118.872 303.772 119.496 304.188 120.248V117.848H306.396V131H304.188V128.552C303.756 129.32 303.108 129.96 302.244 130.472C301.396 130.968 300.404 131.216 299.268 131.216C298.1 131.216 297.044 130.928 296.1 130.352C295.156 129.776 294.412 128.968 293.868 127.928C293.324 126.888 293.052 125.704 293.052 124.376ZM304.188 124.4C304.188 123.408 303.988 122.544 303.588 121.808C303.188 121.072 302.644 120.512 301.956 120.128C301.284 119.728 300.54 119.528 299.724 119.528C298.908 119.528 298.164 119.72 297.492 120.104C296.82 120.488 296.284 121.048 295.884 121.784C295.484 122.52 295.284 123.384 295.284 124.376C295.284 125.384 295.484 126.264 295.884 127.016C296.284 127.752 296.82 128.32 297.492 128.72C298.164 129.104 298.908 129.296 299.724 129.296C300.54 129.296 301.284 129.104 301.956 128.72C302.644 128.32 303.188 127.752 303.588 127.016C303.988 126.264 304.188 125.392 304.188 124.4ZM316.494 117.608C318.094 117.608 319.39 118.096 320.382 119.072C321.374 120.032 321.87 121.424 321.87 123.248V131H319.71V123.56C319.71 122.248 319.382 121.248 318.726 120.56C318.07 119.856 317.174 119.504 316.038 119.504C314.886 119.504 313.966 119.864 313.278 120.584C312.606 121.304 312.27 122.352 312.27 123.728V131H310.086V117.848H312.27V119.72C312.702 119.048 313.286 118.528 314.022 118.16C314.774 117.792 315.598 117.608 316.494 117.608ZM336.766 117.848L328.846 137.192H326.59L329.182 130.856L323.878 117.848H326.302L330.43 128.504L334.51 117.848H336.766ZM341.625 119.648V127.4C341.625 128.04 341.761 128.496 342.033 128.768C342.305 129.024 342.777 129.152 343.449 129.152H345.057V131H343.089C341.873 131 340.961 130.72 340.353 130.16C339.745 129.6 339.441 128.68 339.441 127.4V119.648H337.737V117.848H339.441V114.536H341.625V117.848H345.057V119.648H341.625ZM348.831 115.712C348.415 115.712 348.063 115.568 347.775 115.28C347.487 114.992 347.343 114.64 347.343 114.224C347.343 113.808 347.487 113.456 347.775 113.168C348.063 112.88 348.415 112.736 348.831 112.736C349.231 112.736 349.567 112.88 349.839 113.168C350.127 113.456 350.271 113.808 350.271 114.224C350.271 114.64 350.127 114.992 349.839 115.28C349.567 115.568 349.231 115.712 348.831 115.712ZM349.887 117.848V131H347.703V117.848H349.887ZM369.426 117.608C370.45 117.608 371.362 117.824 372.162 118.256C372.962 118.672 373.594 119.304 374.058 120.152C374.522 121 374.754 122.032 374.754 123.248V131H372.594V123.56C372.594 122.248 372.266 121.248 371.61 120.56C370.97 119.856 370.098 119.504 368.994 119.504C367.858 119.504 366.954 119.872 366.282 120.608C365.61 121.328 365.274 122.376 365.274 123.752V131H363.114V123.56C363.114 122.248 362.786 121.248 362.13 120.56C361.49 119.856 360.618 119.504 359.514 119.504C358.378 119.504 357.474 119.872 356.802 120.608C356.13 121.328 355.794 122.376 355.794 123.752V131H353.61V117.848H355.794V119.744C356.226 119.056 356.802 118.528 357.522 118.16C358.258 117.792 359.066 117.608 359.946 117.608C361.05 117.608 362.026 117.856 362.874 118.352C363.722 118.848 364.354 119.576 364.77 120.536C365.138 119.608 365.746 118.888 366.594 118.376C367.442 117.864 368.386 117.608 369.426 117.608ZM390.336 123.92C390.336 124.336 390.312 124.776 390.264 125.24H379.752C379.832 126.536 380.272 127.552 381.072 128.288C381.888 129.008 382.872 129.368 384.024 129.368C384.968 129.368 385.752 129.152 386.376 128.72C387.016 128.272 387.464 127.68 387.72 126.944H390.072C389.72 128.208 389.016 129.24 387.96 130.04C386.904 130.824 385.592 131.216 384.024 131.216C382.776 131.216 381.656 130.936 380.664 130.376C379.688 129.816 378.92 129.024 378.36 128C377.8 126.96 377.52 125.76 377.52 124.4C377.52 123.04 377.792 121.848 378.336 120.824C378.88 119.8 379.64 119.016 380.616 118.472C381.608 117.912 382.744 117.632 384.024 117.632C385.272 117.632 386.376 117.904 387.336 118.448C388.296 118.992 389.032 119.744 389.544 120.704C390.072 121.648 390.336 122.72 390.336 123.92ZM388.08 123.464C388.08 122.632 387.896 121.92 387.528 121.328C387.16 120.72 386.656 120.264 386.016 119.96C385.392 119.64 384.696 119.48 383.928 119.48C382.824 119.48 381.88 119.832 381.096 120.536C380.328 121.24 379.888 122.216 379.776 123.464H388.08ZM393.915 131.144C393.499 131.144 393.147 131 392.859 130.712C392.571 130.424 392.427 130.072 392.427 129.656C392.427 129.24 392.571 128.888 392.859 128.6C393.147 128.312 393.499 128.168 393.915 128.168C394.315 128.168 394.651 128.312 394.923 128.6C395.211 128.888 395.355 129.24 395.355 129.656C395.355 130.072 395.211 130.424 394.923 130.712C394.651 131 394.315 131.144 393.915 131.144ZM164.992 167.168C163.888 167.168 162.896 166.976 162.016 166.592C161.152 166.192 160.472 165.648 159.976 164.96C159.48 164.256 159.224 163.448 159.208 162.536H161.536C161.616 163.32 161.936 163.984 162.496 164.528C163.072 165.056 163.904 165.32 164.992 165.32C166.032 165.32 166.848 165.064 167.44 164.552C168.048 164.024 168.352 163.352 168.352 162.536C168.352 161.896 168.176 161.376 167.824 160.976C167.472 160.576 167.032 160.272 166.504 160.064C165.976 159.856 165.264 159.632 164.368 159.392C163.264 159.104 162.376 158.816 161.704 158.528C161.048 158.24 160.48 157.792 160 157.184C159.536 156.56 159.304 155.728 159.304 154.688C159.304 153.776 159.536 152.968 160 152.264C160.464 151.56 161.112 151.016 161.944 150.632C162.792 150.248 163.76 150.056 164.848 150.056C166.416 150.056 167.696 150.448 168.688 151.232C169.696 152.016 170.264 153.056 170.392 154.352H167.992C167.912 153.712 167.576 153.152 166.984 152.672C166.392 152.176 165.608 151.928 164.632 151.928C163.72 151.928 162.976 152.168 162.4 152.648C161.824 153.112 161.536 153.768 161.536 154.616C161.536 155.224 161.704 155.72 162.04 156.104C162.392 156.488 162.816 156.784 163.312 156.992C163.824 157.184 164.536 157.408 165.448 157.664C166.552 157.968 167.44 158.272 168.112 158.576C168.784 158.864 169.36 159.32 169.84 159.944C170.32 160.552 170.56 161.384 170.56 162.44C170.56 163.256 170.344 164.024 169.912 164.744C169.48 165.464 168.84 166.048 167.992 166.496C167.144 166.944 166.144 167.168 164.992 167.168ZM185.774 159.92C185.774 160.336 185.75 160.776 185.702 161.24H175.19C175.27 162.536 175.71 163.552 176.51 164.288C177.326 165.008 178.31 165.368 179.462 165.368C180.406 165.368 181.19 165.152 181.814 164.72C182.454 164.272 182.902 163.68 183.158 162.944H185.51C185.158 164.208 184.454 165.24 183.398 166.04C182.342 166.824 181.03 167.216 179.462 167.216C178.214 167.216 177.094 166.936 176.102 166.376C175.126 165.816 174.358 165.024 173.798 164C173.238 162.96 172.958 161.76 172.958 160.4C172.958 159.04 173.23 157.848 173.774 156.824C174.318 155.8 175.078 155.016 176.054 154.472C177.046 153.912 178.182 153.632 179.462 153.632C180.71 153.632 181.814 153.904 182.774 154.448C183.734 154.992 184.47 155.744 184.982 156.704C185.51 157.648 185.774 158.72 185.774 159.92ZM183.518 159.464C183.518 158.632 183.334 157.92 182.966 157.328C182.598 156.72 182.094 156.264 181.454 155.96C180.83 155.64 180.134 155.48 179.366 155.48C178.262 155.48 177.318 155.832 176.534 156.536C175.766 157.24 175.326 158.216 175.214 159.464H183.518ZM195.065 153.608C196.665 153.608 197.961 154.096 198.953 155.072C199.945 156.032 200.441 157.424 200.441 159.248V167H198.281V159.56C198.281 158.248 197.953 157.248 197.297 156.56C196.641 155.856 195.745 155.504 194.609 155.504C193.457 155.504 192.537 155.864 191.849 156.584C191.177 157.304 190.841 158.352 190.841 159.728V167H188.657V153.848H190.841V155.72C191.273 155.048 191.857 154.528 192.593 154.16C193.345 153.792 194.169 153.608 195.065 153.608ZM203.192 160.376C203.192 159.032 203.464 157.856 204.008 156.848C204.552 155.824 205.296 155.032 206.24 154.472C207.2 153.912 208.272 153.632 209.456 153.632C210.48 153.632 211.432 153.872 212.312 154.352C213.192 154.816 213.864 155.432 214.328 156.2V149.24H216.536V167H214.328V164.528C213.896 165.312 213.256 165.96 212.408 166.472C211.56 166.968 210.568 167.216 209.432 167.216C208.264 167.216 207.2 166.928 206.24 166.352C205.296 165.776 204.552 164.968 204.008 163.928C203.464 162.888 203.192 161.704 203.192 160.376ZM214.328 160.4C214.328 159.408 214.128 158.544 213.728 157.808C213.328 157.072 212.784 156.512 212.096 156.128C211.424 155.728 210.68 155.528 209.864 155.528C209.048 155.528 208.304 155.72 207.632 156.104C206.96 156.488 206.424 157.048 206.024 157.784C205.624 158.52 205.424 159.384 205.424 160.376C205.424 161.384 205.624 162.264 206.024 163.016C206.424 163.752 206.96 164.32 207.632 164.72C208.304 165.104 209.048 165.296 209.864 165.296C210.68 165.296 211.424 165.104 212.096 164.72C212.784 164.32 213.328 163.752 213.728 163.016C214.128 162.264 214.328 161.392 214.328 160.4ZM242.441 153.608C243.465 153.608 244.377 153.824 245.177 154.256C245.977 154.672 246.609 155.304 247.073 156.152C247.537 157 247.769 158.032 247.769 159.248V167H245.609V159.56C245.609 158.248 245.281 157.248 244.625 156.56C243.985 155.856 243.113 155.504 242.009 155.504C240.873 155.504 239.969 155.872 239.297 156.608C238.625 157.328 238.289 158.376 238.289 159.752V167H236.129V159.56C236.129 158.248 235.801 157.248 235.145 156.56C234.505 155.856 233.633 155.504 232.529 155.504C231.393 155.504 230.489 155.872 229.817 156.608C229.145 157.328 228.809 158.376 228.809 159.752V167H226.625V153.848H228.809V155.744C229.241 155.056 229.817 154.528 230.537 154.16C231.273 153.792 232.081 153.608 232.961 153.608C234.065 153.608 235.041 153.856 235.889 154.352C236.737 154.848 237.369 155.576 237.785 156.536C238.153 155.608 238.761 154.888 239.609 154.376C240.457 153.864 241.401 153.608 242.441 153.608ZM263.352 159.92C263.352 160.336 263.328 160.776 263.28 161.24H252.768C252.848 162.536 253.288 163.552 254.088 164.288C254.904 165.008 255.888 165.368 257.04 165.368C257.984 165.368 258.768 165.152 259.392 164.72C260.032 164.272 260.48 163.68 260.736 162.944H263.088C262.736 164.208 262.032 165.24 260.976 166.04C259.92 166.824 258.608 167.216 257.04 167.216C255.792 167.216 254.672 166.936 253.68 166.376C252.704 165.816 251.936 165.024 251.376 164C250.816 162.96 250.536 161.76 250.536 160.4C250.536 159.04 250.808 157.848 251.352 156.824C251.896 155.8 252.656 155.016 253.632 154.472C254.624 153.912 255.76 153.632 257.04 153.632C258.288 153.632 259.392 153.904 260.352 154.448C261.312 154.992 262.048 155.744 262.56 156.704C263.088 157.648 263.352 158.72 263.352 159.92ZM261.096 159.464C261.096 158.632 260.912 157.92 260.544 157.328C260.176 156.72 259.672 156.264 259.032 155.96C258.408 155.64 257.712 155.48 256.944 155.48C255.84 155.48 254.896 155.832 254.112 156.536C253.344 157.24 252.904 158.216 252.792 159.464H261.096ZM271.817 160.376C271.817 159.032 272.089 157.856 272.633 156.848C273.177 155.824 273.921 155.032 274.865 154.472C275.825 153.912 276.889 153.632 278.057 153.632C279.209 153.632 280.209 153.88 281.057 154.376C281.905 154.872 282.537 155.496 282.953 156.248V153.848H285.161V167H282.953V164.552C282.521 165.32 281.873 165.96 281.009 166.472C280.161 166.968 279.169 167.216 278.033 167.216C276.865 167.216 275.809 166.928 274.865 166.352C273.921 165.776 273.177 164.968 272.633 163.928C272.089 162.888 271.817 161.704 271.817 160.376ZM282.953 160.4C282.953 159.408 282.753 158.544 282.353 157.808C281.953 157.072 281.409 156.512 280.721 156.128C280.049 155.728 279.305 155.528 278.489 155.528C277.673 155.528 276.929 155.72 276.257 156.104C275.585 156.488 275.049 157.048 274.649 157.784C274.249 158.52 274.049 159.384 274.049 160.376C274.049 161.384 274.249 162.264 274.649 163.016C275.049 163.752 275.585 164.32 276.257 164.72C276.929 165.104 277.673 165.296 278.489 165.296C279.305 165.296 280.049 165.104 280.721 164.72C281.409 164.32 281.953 163.752 282.353 163.016C282.753 162.264 282.953 161.392 282.953 160.4ZM311.066 153.608C312.09 153.608 313.002 153.824 313.802 154.256C314.602 154.672 315.234 155.304 315.698 156.152C316.162 157 316.394 158.032 316.394 159.248V167H314.234V159.56C314.234 158.248 313.906 157.248 313.25 156.56C312.61 155.856 311.738 155.504 310.634 155.504C309.498 155.504 308.594 155.872 307.922 156.608C307.25 157.328 306.914 158.376 306.914 159.752V167H304.754V159.56C304.754 158.248 304.426 157.248 303.77 156.56C303.13 155.856 302.258 155.504 301.154 155.504C300.018 155.504 299.114 155.872 298.442 156.608C297.77 157.328 297.434 158.376 297.434 159.752V167H295.25V153.848H297.434V155.744C297.866 155.056 298.442 154.528 299.162 154.16C299.898 153.792 300.706 153.608 301.586 153.608C302.69 153.608 303.666 153.856 304.514 154.352C305.362 154.848 305.994 155.576 306.41 156.536C306.778 155.608 307.386 154.888 308.234 154.376C309.082 153.864 310.026 153.608 311.066 153.608ZM319.161 160.376C319.161 159.032 319.433 157.856 319.977 156.848C320.521 155.824 321.265 155.032 322.209 154.472C323.169 153.912 324.233 153.632 325.401 153.632C326.553 153.632 327.553 153.88 328.401 154.376C329.249 154.872 329.881 155.496 330.297 156.248V153.848H332.505V167H330.297V164.552C329.865 165.32 329.217 165.96 328.353 166.472C327.505 166.968 326.513 167.216 325.377 167.216C324.209 167.216 323.153 166.928 322.209 166.352C321.265 165.776 320.521 164.968 319.977 163.928C319.433 162.888 319.161 161.704 319.161 160.376ZM330.297 160.4C330.297 159.408 330.097 158.544 329.697 157.808C329.297 157.072 328.753 156.512 328.065 156.128C327.393 155.728 326.649 155.528 325.833 155.528C325.017 155.528 324.273 155.72 323.601 156.104C322.929 156.488 322.393 157.048 321.993 157.784C321.593 158.52 321.393 159.384 321.393 160.376C321.393 161.384 321.593 162.264 321.993 163.016C322.393 163.752 322.929 164.32 323.601 164.72C324.273 165.104 325.017 165.296 325.833 165.296C326.649 165.296 327.393 165.104 328.065 164.72C328.753 164.32 329.297 163.752 329.697 163.016C330.097 162.264 330.297 161.392 330.297 160.4ZM337.324 151.712C336.908 151.712 336.556 151.568 336.268 151.28C335.98 150.992 335.836 150.64 335.836 150.224C335.836 149.808 335.98 149.456 336.268 149.168C336.556 148.88 336.908 148.736 337.324 148.736C337.724 148.736 338.06 148.88 338.332 149.168C338.62 149.456 338.764 149.808 338.764 150.224C338.764 150.64 338.62 150.992 338.332 151.28C338.06 151.568 337.724 151.712 337.324 151.712ZM338.38 153.848V167H336.196V153.848H338.38ZM344.286 149.24V167H342.102V149.24H344.286Z" fill="white"/>
<path d="M202.898 191.288C201.407 192.525 199.397 192.548 197.249 192.571C194.511 192.618 191.773 192.805 189.07 193.038C182.866 193.575 176.628 193.831 170.702 192.151C168.38 191.475 166.092 191.568 163.944 191.871C157.255 192.805 150.635 192.501 143.981 191.871C140.585 191.545 137.189 191.825 133.792 191.965C127.831 192.175 121.801 191.428 116.256 189.771C113.033 188.814 109.879 188.021 106.31 188.068C105.409 188.091 104.403 187.998 103.606 187.718C98.8584 185.991 93.556 185.548 88.4268 184.708C83.7135 183.938 79.1389 182.981 74.9454 181.161C72.4502 180.064 69.5044 179.504 66.8358 178.571C61.3254 176.658 55.8497 174.674 50.3739 172.714C49.7501 172.504 49.057 172.294 48.6411 171.968C44.9328 168.701 38.8332 167.394 34.8824 164.314C34.2932 163.848 33.5308 163.451 32.6991 163.194C25.2825 160.884 20.3958 156.871 16.3064 152.298C14.8854 150.711 13.014 149.264 11.7663 147.631C9.8602 145.157 7.98888 142.637 6.70659 140.024C4.83513 136.197 3.5527 132.254 1.88918 128.381C-0.67541 122.407 -0.46747 116.411 1.54261 110.437C2.40903 107.87 3.62204 105.397 3.48342 102.667C3.41411 101.36 4.31525 99.9371 5.28563 98.7471C7.43434 96.1337 8.99382 93.427 10.0682 90.5337C10.4494 89.4837 11.0733 88.4336 11.9051 87.5236C13.4646 85.8203 15.4399 84.2569 15.9251 82.1803C15.9598 82.0403 16.0292 81.8536 16.2025 81.7603C20.6385 79.2169 22.0595 75.1335 26.6341 72.6368C27.6738 72.0768 28.6442 71.2602 29.0601 70.4435C29.9265 68.7868 31.7632 67.5968 33.0801 66.1501C37.031 61.7634 43.6505 59.2901 48.8144 55.79C50.27 54.81 51.5522 53.76 52.9038 52.7333C53.5276 52.2667 53.9435 51.66 54.6713 51.3333C60.9788 48.5333 65.3108 44.0066 72.5887 41.9999C74.0789 41.6499 75.9851 42.8633 77.5447 41.1832C75.3613 40.9732 73.9404 41.5099 72.4848 42.0466C72.762 40.4132 73.4552 38.9666 76.3317 38.6866C78.7577 38.4299 80.4211 37.5199 81.946 36.2132C84.164 34.2998 87.2139 33.2265 90.8875 33.0632C91.1301 33.0632 91.338 33.0398 91.5806 33.0165C97.4376 32.2932 98.512 31.5465 99.9329 27.0665C105.443 25.4098 111.162 23.6831 118.093 23.2631C117.538 22.6097 117.157 22.1431 116.741 21.6531C116.984 21.5364 117.331 21.2097 117.608 21.2331C120.45 21.3731 123.049 21.0231 125.613 20.1364C127.623 19.4364 129.876 19.0397 132.267 18.433C133.515 19.2731 134.555 20.0664 135.698 20.7664C136.807 21.4197 138.54 21.3964 139.441 20.6731C140.689 19.6231 141.798 18.503 143.184 17.1964C144.016 17.943 144.501 18.4097 145.021 18.8764C145.437 18.8297 146.061 18.8997 146.303 18.7364C148.036 17.523 149.734 16.2864 151.779 14.7697C151.952 15.913 152.022 16.613 152.16 17.4997C155.21 17.2664 157.012 15.633 159.23 14.6997C162.245 13.393 164.949 12.203 168.796 12.9963C170.806 13.4163 172.816 13.0197 174.687 12.1563C178.187 10.5463 182.069 9.79964 186.436 9.77631C189.139 9.77631 191.911 9.19297 194.476 8.53963C198.427 7.55962 202.308 6.76628 206.606 6.95295C208.616 7.04628 210.765 6.71961 212.74 6.34628C215.859 5.73961 218.84 4.52626 221.543 6.95295C225.043 4.52626 228.786 4.12959 232.841 4.19959C234.678 4.22293 236.48 3.80292 238.317 3.75625C241.99 3.66292 245.664 3.66292 249.337 3.66292C251.174 3.66292 253.08 3.91959 254.813 3.66292C258.106 3.21958 260.843 3.45292 262.542 5.80961C266.389 4.01292 270.028 2.82291 274.429 3.05625C275.677 3.12625 276.993 2.44958 278.276 2.12291C281.083 1.4229 283.89 0.676229 286.732 0.069557C287.495 -0.0937777 288.638 0.0462231 289.331 0.326225C290.44 0.769563 290.856 1.65624 292.624 1.72624C296.886 1.86624 301.08 2.98625 305.412 1.79624C307.249 1.2829 309.259 1.0029 311.407 0.582894C311.823 1.7729 312.135 2.63624 312.517 3.75625C313.66 3.14958 314.665 2.63624 315.982 1.93624C317.403 2.44958 318.963 3.03291 320.141 3.45292C325.79 2.58958 331.162 1.74957 336.776 0.886231C338.162 1.65624 339.549 2.40291 340.588 2.98625C343.881 2.98625 346.827 2.96291 349.772 3.00958C350.327 3.03292 350.916 3.40625 351.401 3.66292C351.921 3.94292 352.372 4.57293 352.787 4.5496C357.951 4.19959 362.526 6.67295 367.759 5.94961C367.967 5.92628 368.244 5.92627 368.452 5.97294C374.76 7.34962 381.102 8.7263 387.375 10.1496C388.241 10.3363 389.558 10.6396 389.697 11.0363C390.459 13.4163 393.613 13.4397 396.039 14.093C405.882 16.753 413.818 21.0231 417.249 27.8131C419.467 32.1765 423.383 34.7665 429.344 35.9099C435.513 37.1232 440.33 39.7832 445.667 41.8599C452.945 44.6833 459.114 48.3933 463.758 53.1767C464.243 53.69 464.902 54.18 465.664 54.5067C469.06 56 471.348 58.1467 473.323 60.4334C477.032 64.7268 481.225 68.8335 483.755 73.5469C484.517 74.9935 485.73 76.3469 486.735 77.7469C487.255 78.4469 487.914 79.1002 488.26 79.8236C490.062 83.5103 492.177 87.1503 493.459 90.907C495.677 97.4171 498.033 103.927 498.519 110.624C498.623 112.024 498.831 113.447 498.588 114.801C498.345 116.201 498.588 117.484 498.796 118.861C499.212 121.591 498.969 124.437 498.276 127.167C496.959 132.371 496.82 137.714 494.013 142.707C494.325 146.161 491.83 148.821 489.196 151.644C486.527 154.468 485.176 157.851 483.2 160.954C482.473 162.098 481.814 163.264 480.774 164.268C477.794 167.208 474.744 170.148 471.486 172.948C469.65 174.534 467.466 175.934 465.283 177.288C460.05 180.531 454.782 183.728 451.004 187.881C450.311 188.651 449.202 189.281 448.128 189.841C444.246 191.801 440.296 193.691 436.379 195.605C435.998 195.791 435.513 195.885 435.236 196.118C430.453 199.991 423.418 202.068 418.115 205.428C413.818 208.158 409.139 210.281 404.01 212.031C400.544 213.221 396.836 214.085 393.301 215.041C390.737 214.575 388.345 214.038 385.885 213.711C384.082 213.478 382.211 213.315 380.409 213.431C376.042 213.688 371.71 214.061 367.413 214.481C365.403 214.691 363.254 214.901 361.486 215.508C357.605 216.861 353.446 216.791 349.356 217.071C347.589 217.188 346.237 216.628 345.267 215.648C344.747 215.135 344.297 214.598 343.915 214.038C340.207 208.461 340.866 207.785 349.807 207.621C351.159 207.598 352.614 207.481 353.862 207.131C359.511 205.451 365.472 205.265 371.468 205.171C372.819 205.148 374.275 205.148 375.557 204.868C378.676 204.238 381.795 203.888 385.087 203.888C387.063 203.888 389.212 203.421 390.979 202.768C396.628 200.668 402.277 198.545 407.58 196.095C412.293 193.925 417.318 191.965 421.026 188.884C421.997 188.068 423.487 187.461 424.873 186.971C430.037 185.128 434.3 182.514 438.355 179.761C441.127 177.894 443.588 175.818 446.638 174.184C449.41 172.714 451.663 170.964 453.638 169.074C459.218 163.754 464.694 158.364 470.031 152.951C471.66 151.271 472.769 149.357 474.12 147.561C474.64 146.861 474.883 145.974 475.68 145.507C478.972 143.641 479.319 140.981 480.255 138.437C481.121 136.034 482.161 133.654 483.131 131.251C485.557 125.347 486.008 119.304 486.181 113.237C486.181 112.934 486.077 112.607 486.112 112.304C487.082 106.937 483.859 101.944 483.062 96.7404C481.987 89.717 478.037 83.2069 475.021 76.5569C474.571 75.5302 473.67 74.5735 472.907 73.6402C470.377 70.4902 467.674 67.4101 465.318 64.2134C463.758 62.0901 461.956 60.1534 459.287 58.6134C455.44 56.3967 452.425 53.55 447.885 51.87C446.915 51.52 446.256 50.7733 445.39 50.2833C444.004 49.49 442.652 48.6266 441.093 48.02C435.686 45.9433 430.21 43.9833 424.735 41.9766C423.244 41.4166 422.274 40.6232 421.893 39.4799C421.685 38.9199 421.269 38.4066 420.819 37.6832C417.526 38.3599 414.58 38.9666 410.422 39.8299C412.432 38.1965 413.887 37.3332 414.754 36.2365C415.62 35.1632 415.863 33.8798 416.313 32.9232C414.927 28.4198 409.624 26.5064 405.05 24.2898C402.104 22.8664 398.742 21.7697 395.45 20.7664C390.875 19.3664 386.127 18.1764 381.483 16.9164C379.785 16.4497 377.983 16.0997 376.354 15.5397C373.443 14.4897 370.358 13.953 367.066 13.8363C363.323 13.7197 359.788 13.2063 356.392 12.1097C350.847 10.3363 344.678 10.5463 338.786 10.0096C331.959 9.40297 325.027 9.2163 318.131 8.95963C314.457 8.81963 310.714 8.74963 307.075 8.95963C300.595 9.30964 294.149 9.0063 287.702 8.84297C283.336 8.7263 278.934 8.49296 274.602 8.5863C271.656 8.6563 268.745 9.30964 265.765 9.56631C261.433 9.93964 257.135 10.2896 252.665 10.1496C248.818 10.033 244.901 10.7563 241.055 11.1297C238.317 11.3863 235.544 12.0863 232.876 11.8997C225.563 11.3863 218.666 12.693 211.666 13.603C207.611 14.1397 203.591 14.793 199.467 15.1897C195.897 15.5397 192.327 16.193 188.723 16.683C183.559 17.4064 178.465 18.3864 173.301 19.2031C172.469 19.3431 171.499 19.1097 170.632 19.1564C169.558 19.2264 168.414 19.2964 167.444 19.5531C166.404 19.8331 165.538 20.5797 164.498 20.7197C158.399 21.6064 152.715 23.2164 147.031 24.8731C138.783 27.2765 129.98 28.6065 121.455 30.4732C120.138 30.7532 118.855 31.0798 117.642 31.4998C113.31 32.9698 109.082 34.5332 104.75 35.9799C94.1799 39.5266 84.3028 43.7966 75.1534 48.8133C69.6084 51.8467 63.9939 54.81 58.6221 57.9834C43.4425 66.9668 30.3424 77.1636 20.9158 89.2737C16.4451 95.0137 11.697 100.8 11.2465 107.544C8.92447 111.231 10.9693 115.267 9.06317 118.977C9.82561 122.337 10.0336 125.837 11.4891 129.057C13.8458 134.237 16.8609 139.301 19.9453 144.317C21.1583 146.301 23.0644 148.167 25.1438 149.801C30.2383 153.814 35.0902 157.898 41.2244 161.328C50.5817 166.554 60.9441 170.334 72.1035 173.531C82.3619 176.448 92.8282 178.711 103.433 180.788C110.295 182.118 117.296 183.121 124.296 184.031C132.649 185.128 141.105 185.968 149.492 186.901C150.843 187.064 152.299 187.344 153.616 187.228C160.131 186.574 166.335 188.698 172.954 187.718C173.682 189.001 174.237 189.935 174.757 190.845C175.38 190.751 176.004 190.775 176.212 190.588C178.291 188.745 180.683 188.138 184.044 189.094C185.396 189.491 187.163 189.375 188.723 189.305C192.154 189.165 195.585 188.885 199.571 188.628C199.189 189.538 198.912 190.191 198.6 190.891C199.848 192.011 201.442 191.498 202.967 191.288H202.898ZM406.436 203.911C405.674 204.518 405.015 204.868 404.772 205.335C404.668 205.521 405.466 205.941 405.847 206.268C406.436 205.918 407.164 205.615 407.545 205.195C407.684 205.031 407.025 204.565 406.436 203.911ZM378.676 208.088C380.166 207.388 381.171 206.921 382.592 206.245C380.062 205.871 379.092 206.361 378.676 208.088ZM297.857 5.90294C298.03 5.97294 298.203 6.01961 298.377 6.08961C298.446 5.97294 298.654 5.83294 298.585 5.7396C298.515 5.64627 298.273 5.5996 298.099 5.55294C298.03 5.6696 297.926 5.78627 297.857 5.90294ZM26.2529 75.2969L26.738 75.3435L26.5995 75.0402L26.2529 75.2969Z" fill="#D54B40"/>
<path d="M254.145 192.359C253.753 192.355 253.279 192.35 252.699 192.315C252.979 194.511 254.512 195.845 256 197.14C256.172 197.289 256.343 197.438 256.511 197.588C258.348 199.221 259.769 200.901 260.462 202.955C262.091 207.738 260.774 212.288 258.002 216.581C255.229 220.805 252.249 225.075 246.253 227.898C245.068 228.436 244.168 229.27 243.291 230.081C243.065 230.29 242.841 230.498 242.614 230.698C240.535 232.542 238.317 234.292 235.648 235.832C232.39 237.698 230.554 240.148 231.975 243.345C235.544 243.928 239.045 244.488 242.233 243.298C242.675 243.132 243.118 242.967 243.562 242.802C248.106 242.364 252.353 241.776 256.522 240.859C258.465 240.417 260.53 239.92 262.131 239.096C264.416 237.894 266.979 237.56 269.658 237.211L269.8 237.193C270.118 237.15 270.436 237.108 270.755 237.066C273.399 236.718 276.053 236.369 278.458 235.643C283.922 234.002 289.219 232.1 294.482 230.193C296.073 229.63 297.625 228.847 298.765 227.91C300.131 226.815 301.71 226.059 303.446 225.254C310.719 221.889 314.778 217.239 314.783 211.162C314.782 211.036 314.778 210.909 314.775 210.781C314.757 210.136 314.739 209.476 314.933 208.847C315.498 207.138 314.324 205.782 313.055 204.507C311.713 203.127 309.654 202.457 307.124 202.626L307.152 202.535C305.444 207.253 301.287 210.96 296.104 214.094C293.34 215.769 290.19 217.18 287.066 218.579C286.545 218.813 286.024 219.046 285.506 219.28C283.991 219.964 282.338 220.507 280.685 221.049C280.273 221.185 279.861 221.32 279.451 221.457C278.93 221.637 278.385 221.788 277.842 221.939C277.104 222.143 276.368 222.347 275.692 222.622C274.557 223.073 273.42 223.52 272.284 223.966C271.84 224.141 271.395 224.315 270.95 224.49C275.05 218.786 276.249 212.712 273.077 206.408C269.993 200.271 263.443 195.931 255.507 192.501C255.206 192.371 254.785 192.367 254.145 192.359Z" fill="#D54B40"/>
<path d="M203.002 191.335C205.393 191.358 206.294 189.911 207.888 189.141C208.304 188.931 209.586 188.955 209.621 189.048C209.829 189.561 210.037 190.168 209.794 190.658C209.656 190.985 208.824 191.381 208.269 191.405C206.502 191.451 204.734 191.358 202.932 191.288C202.898 191.288 203.002 191.335 203.002 191.335Z" fill="#D54B40"/>
<path d="M379.092 219.358C379.265 219.428 379.577 219.475 379.577 219.568C379.612 219.685 379.438 219.825 379.334 219.965C379.092 219.848 378.815 219.755 378.572 219.638C378.78 219.545 378.953 219.452 379.092 219.358Z" fill="#D54B40"/>
<path d="M384.602 217.865C384.498 218.028 384.464 218.191 384.325 218.215C384.221 218.238 384.013 218.145 383.875 218.121C384.082 218.051 384.29 217.981 384.602 217.865Z" fill="#D54B40"/>
<path d="M319.621 196.841C319.621 196.561 319.621 196.305 319.656 196.025C319.656 196.305 319.621 196.608 319.587 196.911C319.552 196.935 319.621 196.841 319.621 196.841Z" fill="#D54B40"/>
<path d="M406.436 203.911C407.025 204.541 407.684 205.031 407.545 205.171C407.164 205.591 406.436 205.895 405.847 206.245C405.466 205.918 404.669 205.521 404.773 205.311C404.98 204.868 405.674 204.518 406.436 203.911Z" fill="#D54B40"/>
<path d="M378.676 208.088C379.057 206.361 380.062 205.871 382.592 206.245C381.171 206.921 380.166 207.388 378.676 208.088Z" fill="#D54B40"/>
</svg>
