<svg width="290" height="48" viewBox="0 0 290 48" fill="none" xmlns="http://www.w3.org/2000/svg">
<path d="M289.824 31.4724C285.747 33.9354 281.487 34.0854 277.139 33.0211C275.307 32.5688 273.539 31.5416 271.751 30.8616C269.747 30.1168 267.706 28.9016 265.693 28.8548C262.266 28.7551 258.956 28.8246 256.731 24.7529C252.133 23.1149 247.611 20.6708 242.555 22.0846C242.355 23.3809 242.193 24.5653 241.942 26.205C238.488 25.4807 235.752 27.6382 232.899 29.6264C227.557 33.297 222.34 37.5262 215.655 38.2401C211.648 36.7119 208.687 33.4062 207.165 28.0594C206.692 26.4108 205.773 24.8639 204.811 23.5061C203.294 21.383 201.361 20.4914 199.157 21.5866C196.239 23.0622 193.184 23.6283 190.034 23.6394C187.009 23.6656 184.442 25.6104 182.036 27.4968C177.453 31.1029 172.528 33.542 167.298 35.2455C166.304 35.5537 165.254 35.7386 164.242 35.8116C158.33 36.2297 156.465 34.6862 154.539 27.5825C153.86 25.1325 153.503 22.5657 152.922 20.0498C151.632 14.4978 148.299 12.7398 144.315 15.7963C141.877 17.6789 139.807 20.3044 136.953 21.2053C130.247 23.3922 125.103 29.1058 118.927 32.4824C115.223 34.4852 111.332 34.7959 107.482 35.4997C105.19 35.9243 102.148 34.0456 101.668 29.7556C101.209 25.6621 100.78 21.5724 100.227 17.4677C99.7698 13.8794 97.8515 12.1742 95.3646 13.8179C88.2297 18.5552 80.3778 20.9544 72.7678 24.0816C65.4481 27.0882 57.8409 28.5072 50.078 28.2378C46.3384 28.1006 43.2535 25.8674 41.0538 21.915C40.4832 20.8759 39.9147 19.7983 39.23 18.5513C35.2209 19.275 32.2324 21.9848 29.2482 24.6175C20.8896 32.0429 12.6472 39.6375 4.31543 47.1438C4.18153 47.2831 3.90226 47.2108 3.7102 47.2655C0.41087 42.7155 -0.0620964 41.0668 2.34921 37.4337C5.07057 33.3328 7.90114 28.9732 11.4637 26.138C20.466 19.0226 29.003 11.2303 37.4281 3.19154C37.7271 2.91671 38.2029 2.85714 38.9442 2.55761C39.5346 3.2496 40.344 3.96781 40.9838 4.8987C42.1717 6.71067 43.2905 8.63086 44.4093 10.551C46.7341 14.5184 49.6489 16.4206 53.642 15.4232C54.8235 15.1375 56.1191 15.0597 57.3367 15.2443C59.8345 15.6211 62.3395 16.4258 64.2064 13.5041C71.5529 12.7917 77.5069 6.6704 84.8781 6.07747C85.6688 6.01683 86.5397 5.65515 87.2317 5.11672C91.6716 1.80412 96.7249 2.09854 101.735 1.49469C104.287 4.79025 105.59 8.44113 105.626 12.7944C105.65 14.5835 105.607 16.4423 105.821 18.2153C106.444 22.7555 110.184 25.106 113.358 23.0009C114.928 21.9851 116.154 19.8021 118.374 21.1939C118.465 21.2437 119.003 20.648 119.121 20.235C120.295 16.7643 122.722 15.6182 125.418 14.7372C127.823 13.9768 130.152 12.8965 132.503 11.9743C132.889 11.8264 133.369 11.6898 133.608 11.3689C138.401 5.18616 145.011 3.57026 151.21 0.895383C151.759 0.65051 152.342 0.370801 152.795 0.15326C155.788 1.79303 156.816 4.7508 157.119 8.28183C157.286 10.3211 157.127 12.5542 157.779 14.3797C160.382 21.7586 163.113 23.0175 169.193 20.212C176.146 17.0061 183.124 13.9198 189.947 10.2324C193.325 8.42356 197.084 7.66989 200.729 6.7084C202.105 6.3295 203.635 6.5516 205.101 6.80476C207.972 7.26503 210.203 9.00776 211.522 12.3887C212.621 15.1997 213.721 18.0106 214.983 20.7246C215.57 22.0374 216.549 23.0867 217.393 24.3137C221.776 22.0039 225.984 19.9839 230.055 17.6366C234.547 15.068 238.927 12.2531 244.152 12.2962C245.128 12.2966 246.171 11.6837 246.994 11.0446C250.488 8.31757 254.181 8.72094 257.79 10.5899C263.237 13.3778 268.852 15.4093 274.544 17.2169C277.574 18.201 280.393 20.1306 283.374 21.4195C287.28 23.0522 289.202 26.35 289.824 31.4724ZM138.924 12.5878C138.682 12.4036 138.441 12.2194 138.197 12.0737C138.249 12.274 138.263 12.5863 138.412 12.7208C138.504 12.7706 138.763 12.6462 138.924 12.5878ZM150.625 3.97068L150.328 3.66322L150.241 4.08002L150.625 3.97068Z" fill="#D54B40"/>
</svg>
