
<svg width="228" height="130" viewBox="0 0 228 130" fill="none" xmlns="http://www.w3.org/2000/svg">
<path d="M56.9062 7.68401C56.5175 8.28166 56.1287 8.87931 55.7997 9.42003C53.7065 8.62317 51.9423 7.68402 50.0584 7.31404C48.2642 6.97253 46.6194 6.5741 45.0345 5.72032C44.4365 5.40727 43.4197 5.46419 42.7618 5.72032C40.0705 6.74486 37.3195 6.7164 34.5086 6.51718C33.9105 6.48872 33.133 6.37489 32.7741 6.65948C30.023 8.79393 27.0626 7.57018 24.2217 7.20021C22.1584 6.91561 20.3343 7.05791 18.57 8.36704C17.8224 7.3425 17.2543 6.43181 16.5067 5.60648C15.8788 4.92346 15.1013 4.35428 13.9649 3.3582C15.8488 3.01669 17.3141 2.76055 18.7794 2.50442C20.3344 2.24829 21.979 1.62218 23.4742 1.8214C27.6008 2.41904 31.3687 1.33759 35.1963 0.284593C35.914 0.0853779 36.7214 0.0853779 37.4391 0C38.1568 2.3052 34.9571 1.05299 35.2263 2.5898C40.6089 2.95977 46.0812 3.3582 52.0021 3.78509C53.3776 2.73209 55.0821 1.45143 56.9062 0.0569186C58.521 0.284593 60.2853 0.540727 62.1094 0.82532C61.9001 1.36605 61.7207 1.8214 61.3917 2.61826C66.8939 1.65064 72.2167 0.42689 78.8253 1.08145C76.463 2.16291 75.0874 2.76055 73.7118 3.38666C73.9511 3.47204 74.2202 3.67125 74.4893 3.67125C77.8385 3.5005 81.1579 2.21983 84.7463 3.41512C85.6434 2.76055 86.4806 1.93523 87.4973 1.45142C88.9028 0.768401 90.4279 0.0853779 91.4446 2.19137C91.9231 3.18744 93.209 3.44358 94.0163 2.81747C95.6012 1.62218 97.0664 1.50834 98.9802 2.13445C100.206 2.56134 101.701 2.27675 103.077 2.3052C107.832 2.41904 112.317 3.67125 116.833 4.895C117.55 5.09422 118.388 5.15114 119.135 5.00884C126.402 3.81355 133.309 5.35035 140.187 7.4848C141.862 7.99707 143.656 8.62317 145.36 8.50933C150.534 8.22474 155.079 10.16 159.804 11.5829C161.12 11.9814 162.375 12.6359 163.721 12.9205C165.844 13.3474 168.236 13.0913 170.15 13.8881C179.809 17.9009 190.335 19.7792 199.515 24.9873C202.595 26.7518 205.287 28.9716 208.217 30.8784C213.271 34.1796 215.783 39.6154 220.747 42.8597C222.272 46.8156 226.817 49.5761 225.92 54.528C225.8 55.2111 226.07 56.0933 226.488 56.6625C228.552 59.48 228.282 62.3259 226.997 65.3141C226.638 66.1679 226.369 67.164 226.428 68.0747C226.727 72.5997 224.784 76.5271 222.84 80.426C222.003 82.1336 221.046 83.8127 219.102 84.7234C218.444 85.0364 217.607 85.6625 217.457 86.2886C216.56 89.7607 213.211 90.586 210.64 92.2936L210.699 92.2651C210.011 92.8912 209.264 93.4604 208.636 94.115C207.619 95.1964 206.513 95.7656 205.018 95.1679C203.881 95.9933 201.788 94.7126 201.19 96.8471C202.984 97.2739 203.941 96.0217 205.048 95.1395C204.061 97.0463 202.715 98.4123 200.502 99.3515C196.346 101.087 192.309 103.137 188.451 105.385C186.507 106.523 184.564 107.092 182.441 107.633C180.557 108.117 178.553 108.658 176.968 109.682C174.845 111.105 172.513 112.073 170.27 113.211C161.987 117.452 153.046 119.956 143.925 121.806C142.37 122.119 140.755 122.09 139.2 122.347C136.479 122.802 133.578 122.944 131.067 123.969C128.196 125.136 125.564 125.819 122.484 125.022C121.408 124.737 119.913 124.794 118.986 125.306C114.68 127.725 109.686 126.872 105.11 128.095C101.642 129.035 97.7243 128.352 93.9864 128.408C92.0427 128.437 90.1288 128.038 88.1253 128.778C86.8993 129.234 85.3743 129.063 83.9987 128.949C79.4833 128.551 74.9678 128.01 70.4524 127.612C69.3161 127.498 68.1199 127.612 66.9836 127.782C63.6643 128.266 60.3151 128.665 56.8164 128.266C56.5772 127.441 56.3979 126.758 56.1886 126.046C55.8297 125.932 55.4709 125.733 55.112 125.762C49.55 125.932 44.0478 125.79 38.5456 124.709C36.9308 124.396 35.4655 124.168 34.3591 122.887C32.8938 121.18 31.1295 120.212 28.6176 120.753C28.0195 120.867 27.1524 120.326 26.5543 119.871C22.5472 116.74 18.3009 114.065 12.6193 113.78C12.9183 112.414 13.6062 111.191 13.2772 110.337C12.6193 108.715 10.7055 107.918 9.62895 106.409C9.03088 105.584 7.4759 105.442 6.63861 104.702C4.96402 103.222 2.60159 101.884 3.88744 99.0669C2.33246 96.2779 2.60162 93.2612 2.4222 90.2729C2.3624 89.4476 1.555 88.6508 1.07655 87.7685C2.60162 85.8618 4.06692 84.0973 3.79779 81.5644C3.70808 80.7391 4.30612 79.7999 4.66496 78.9461C5.14341 77.8931 5.98073 76.954 6.19006 75.8725C6.84793 72.2867 8.64208 69.583 11.9614 67.7047C12.7388 67.2494 13.3968 66.3387 13.6958 65.4849C14.6228 62.7528 16.8356 61.2729 19.1681 59.793C21.9192 58.0285 25.3582 56.9471 26.1057 53.0197C27.5411 53.6173 28.3784 53.9873 29.5446 54.4711C30.0231 53.3043 30.5313 52.1375 31.0995 50.743C32.0564 50.4014 33.133 49.69 34.2693 49.633C37.9773 49.4623 40.7285 47.3278 43.7188 45.7057C44.4066 45.3357 45.0644 44.8803 45.7821 44.7096C47.5763 44.3112 49.9388 45.4211 50.806 42.8313C52.66 42.0913 54.185 40.9814 55.411 39.4161C56.4876 38.0501 57.8331 36.7979 59.9563 37.5094C60.2852 37.4525 60.6142 37.424 60.9432 37.3671C60.5843 37.3955 60.2255 37.4525 59.8966 37.4809C61.4814 35.5741 63.7241 34.6065 66.1164 34.5211C70.3029 34.4073 74.0109 32.2444 77.8086 32.4721C79.3636 31.3337 77.8385 30.5084 78.1973 29.6546C78.4964 29.4554 78.7954 29.1423 79.1244 29.0854C85.2247 28.3455 90.8765 26.0118 96.6777 24.2758C99.0401 23.5643 101.761 24.3612 103.884 22.4829C104.363 22.056 105.828 22.3975 106.725 22.6536C108.041 23.0236 109.267 23.6497 110.971 24.3327C112.287 23.109 113.663 21.7998 115.038 20.5192L114.949 20.6045C117.909 20.1492 120.84 19.5515 123.8 19.267C127.747 18.897 131.724 18.7831 135.702 18.5839C136.3 18.5555 137.047 18.4986 137.466 18.8116C140.456 21.003 144.224 20.6615 147.573 21.7714C150.743 22.8244 154.092 23.3082 157.352 24.105C157.86 24.2189 158.279 24.7311 159.086 25.3288C158.279 25.8126 157.711 26.4956 157.112 26.5241C153.763 26.6095 150.324 27.2925 147.184 25.528C146.706 25.2719 145.809 25.0442 145.51 25.3003C143.028 27.264 140.516 25.4142 138.034 25.3572C135.702 25.3003 133.309 24.7881 131.037 24.2473C128.286 23.5928 125.594 23.3651 122.783 24.0481C117.789 25.2719 112.766 26.3249 107.712 27.3779C103.256 28.2886 98.8009 29.3131 94.1359 29.1139C92.4015 29.057 90.6671 29.2846 88.9925 29.37C88.9028 31.5614 90.7568 31.2768 91.4446 31.7321C87.1086 33.4397 82.623 35.318 78.0478 36.9971C74.9379 38.1639 71.6785 38.9039 68.8676 40.8676C67.9107 41.5506 66.1762 41.266 64.8007 41.3514C62.4682 41.4652 60.1357 41.5221 56.8464 41.636C58.5508 42.6321 59.418 43.1443 60.4348 43.742C60.1058 44.2542 59.9264 44.8803 59.5377 45.108C55.1718 47.7263 50.9255 50.5722 46.3502 52.7636C44.1075 53.845 42.1937 55.2964 39.9809 56.3779C38.0073 57.3455 36.1234 58.3416 34.8077 60.1061C34.3591 60.7037 33.7012 61.3014 32.9835 61.5575C26.1356 64.1473 22.2183 70.2376 16.5067 74.165C15.6096 74.7911 14.5032 75.9579 14.5331 76.8686C14.5929 79.8853 12.3203 81.6213 10.8251 83.7842C11.0942 86.8009 11.3035 89.7891 11.6623 92.7774C11.7819 93.8873 12.1707 94.9972 12.5894 96.0502C15.4302 103.222 21.2314 108.971 28.7072 111.76C32.0265 113.012 35.4953 113.894 38.9043 114.919C40.2201 115.317 41.7153 115.488 42.8217 116.199C44.6159 117.338 46.3801 117.708 48.4435 117.11C48.9817 116.939 49.7593 116.911 50.178 117.167C53.7664 119.415 57.7734 118.476 61.6309 118.647C71.7382 119.131 81.8158 119.586 91.9231 120.013C94.4948 120.127 97.0964 119.984 99.6681 120.07C101.522 120.127 103.137 119.728 104.752 118.789C108.968 116.285 113.753 115.687 118.537 115.716C120.63 115.744 122.335 115.317 124.159 114.663C128.794 113.012 133.758 112.357 138.184 110.081C139.619 109.341 141.473 109.284 143.327 109.227C146.796 109.113 150.444 108.857 153.614 107.064C154.451 106.58 155.378 106.125 156.335 105.954C163.901 104.588 170.33 100.774 176.908 97.3878C179.899 95.851 182.859 94.3995 186.208 93.6596C188.87 93.062 191.262 92.1228 193.176 89.7607C194.791 87.7401 197.542 86.5163 199.814 85.008C206.333 80.7106 211.327 75.3318 214.676 68.3593C219.311 58.74 215.544 49.5761 209.114 44.7665C206.632 42.9166 204.42 40.7253 202.117 38.6477C198.947 35.7734 195.598 33.1836 191.621 31.2768C189.378 30.1953 187.464 28.5162 185.401 27.0933C182.65 27.7194 180.407 26.0687 177.925 25.4995C173.499 24.5035 168.924 23.9627 164.648 22.2836C163.751 21.9421 162.585 21.6006 161.718 21.8283C158.518 22.7105 155.886 21.3445 153.135 20.2346C149.487 18.7831 145.779 17.4171 142.041 16.1364C141.174 15.8234 140.127 15.8803 139.17 15.9372C135.313 16.2503 132.113 15.6526 127.837 13.8312C127.149 13.5466 126.342 13.319 125.594 13.2905C123.023 13.1767 120.421 13.1482 117.849 13.1482C116.025 13.1482 114.321 13.0913 112.945 11.6399C111.749 10.3876 110.015 10.4446 108.46 10.7861C102.898 12.0667 97.4253 11.0422 91.8632 10.5584C87.4076 10.1884 82.9221 8.68009 78.3768 10.0177C78.0179 10.1315 77.5395 10.0746 77.2106 9.90384C73.2334 7.76939 69.047 9.0216 64.8007 9.36311C63.9036 7.17175 62.3786 6.5741 60.076 7.3425C58.9995 7.68401 57.7435 7.57018 56.6072 7.65556C56.7866 6.63102 56.9361 5.63494 57.1454 4.32582C55.3512 5.57803 55.3512 5.57803 55.9792 6.7164C56.338 7.17175 56.667 7.42788 56.9062 7.68401ZM47.9949 47.1002C44.257 46.9863 44.2272 46.9579 44.3169 49.8607C45.3336 49.0923 46.2007 48.4378 47.9949 47.1002ZM68.3891 37.9932C67.6116 37.737 67.1032 37.4525 66.6845 37.5094C66.2958 37.5663 65.967 38.0501 65.6081 38.3347C65.9969 38.5339 66.4155 38.9608 66.7743 38.9039C67.2229 38.847 67.6714 38.4485 68.3891 37.9932ZM24.2517 5.35035C24.5507 4.895 24.8199 4.49657 25.0591 4.1266C24.5508 3.92739 24.0125 3.52895 23.5639 3.58587C23.1752 3.64279 22.8762 4.24044 22.5473 4.61041C23.0257 4.83808 23.534 5.0373 24.2517 5.35035ZM33.4321 53.3612C33.3125 53.2474 33.1628 53.162 33.0432 53.0482C32.8937 53.2758 32.7143 53.532 32.5947 53.7881C32.5648 53.8166 32.834 53.9873 32.9536 54.1012C33.1031 53.845 33.2526 53.6173 33.4321 53.3612ZM8.73184 74.5349C8.94117 74.7057 9.18045 74.8765 9.38978 75.0472C9.47949 74.9334 9.68881 74.7057 9.68881 74.6772C9.50939 74.478 9.27013 74.3073 9.06081 74.1365C8.9412 74.2788 8.85146 74.4211 8.73184 74.5349ZM44.1674 123.969C44.1075 124.083 43.958 124.253 44.0178 124.31C44.1075 124.424 44.2869 124.481 44.4365 124.566C44.5262 124.367 44.6158 124.168 44.7056 123.969C44.4962 123.969 44.3468 123.969 44.1674 123.969ZM18.4504 67.3063C18.1514 67.1924 17.9421 67.1355 17.7627 67.0786C17.7926 67.2209 17.8225 67.3347 17.8524 67.477C18.0019 67.4201 18.1514 67.3632 18.4504 67.3063ZM138.034 116.256C138.184 116.313 138.363 116.399 138.513 116.399C138.572 116.399 138.632 116.142 138.692 116.029C138.542 115.972 138.363 115.886 138.213 115.886C138.124 115.886 138.064 116.114 138.034 116.256Z" fill="#D54B40"/>
<path d="M12.0511 6.65959C8.28332 7.88334 4.81447 7.88334 1.37558 7.08648C0.71771 6.94418 0.328937 5.80581 0 4.80974C2.81092 6.97264 5.77141 6.28962 8.73184 5.72043C9.89808 5.49276 9.89811 5.52122 12.0511 6.65959Z" fill="#D54B40"/>
<path d="M97.0963 117.992C98.3523 117.708 99.6082 117.395 101.014 117.082C101.253 118.362 100.117 118.305 99.6082 118.59C98.9802 118.903 98.1729 118.846 97.4552 118.932C97.3057 118.619 97.2159 118.305 97.0963 117.992Z" fill="#D54B40"/>
</svg>
